<?xml version="1.0" encoding="UTF-8"?>
<svg width="16px" height="16px" viewBox="0 0 16 16" version="1.1" xmlns="http://www.w3.org/2000/svg" xmlns:xlink="http://www.w3.org/1999/xlink">
    <!-- Generator: Sketch 58 (84663) - https://sketch.com -->
    <title>icon/briefcase</title>
    <desc>Created with Sketch.</desc>
    <defs>
        <path d="M14.4,3.36842105 L11.2,3.36842105 L11.2,1.68421053 C11.2,0.749473684 10.488,0 9.6,0 L6.4,0 C5.512,0 4.8,0.749473684 4.8,1.68421053 L4.8,3.36842105 L1.6,3.36842105 C0.712,3.36842105 0.008,4.11789474 0.008,5.05263158 L0,14.3157895 C0,15.2505263 0.712,16 1.6,16 L14.4,16 C15.288,16 16,15.2505263 16,14.3157895 L16,5.05263158 C16,4.11789474 15.288,3.36842105 14.4,3.36842105 Z M9.6,3.36842105 L6.4,3.36842105 L6.4,1.68421053 L9.6,1.68421053 L9.6,3.36842105 Z" id="path-1"></path>
    </defs>
    <g id="icon/briefcase" stroke="none" stroke-width="1" fill="none" fill-rule="evenodd">
        <g id="swatch/black">
            <mask id="mask-2" fill="white">
                <use xlink:href="#path-1"></use>
            </mask>
            <use id="Mask" fill="#000000" fill-rule="nonzero" xlink:href="#path-1"></use>
            <g mask="url(#mask-2)" fill="#000000" id="Rectangle">
                <rect x="0" y="0" width="20" height="20"></rect>
            </g>
        </g>
    </g>
</svg>