<?xml version="1.0" encoding="UTF-8"?>
<svg width="16px" height="16px" viewBox="0 0 16 16" version="1.1" xmlns="http://www.w3.org/2000/svg" xmlns:xlink="http://www.w3.org/1999/xlink">
    <!-- Generator: Sketch 58 (84663) - https://sketch.com -->
    <title>icon/contact</title>
    <desc>Created with Sketch.</desc>
    <defs>
        <path d="M15.992,1.6 C15.992,0.72 15.28,0 14.4,0 L1.6,0 C0.72,0 0,0.72 0,1.6 L0,11.2 C0,12.08 0.72,12.8 1.6,12.8 L12.8,12.8 L16,16 L15.992,1.6 Z M12.8,9.6 L3.2,9.6 L3.2,8 L12.8,8 L12.8,9.6 Z M12.8,7.2 L3.2,7.2 L3.2,5.6 L12.8,5.6 L12.8,7.2 Z M12.8,4.8 L3.2,4.8 L3.2,3.2 L12.8,3.2 L12.8,4.8 Z" id="path-1"></path>
    </defs>
    <g id="icon/contact" stroke="none" stroke-width="1" fill="none" fill-rule="evenodd">
        <g id="swatch/black">
            <mask id="mask-2" fill="white">
                <use xlink:href="#path-1"></use>
            </mask>
            <use id="Mask" fill="#000000" fill-rule="nonzero" xlink:href="#path-1"></use>
            <g mask="url(#mask-2)" fill="#000000" id="Rectangle">
                <rect x="0" y="0" width="20" height="20"></rect>
            </g>
        </g>
    </g>
</svg>