<?xml version="1.0" encoding="UTF-8"?>
<svg width="16px" height="16px" viewBox="0 0 16 16" version="1.1" xmlns="http://www.w3.org/2000/svg" xmlns:xlink="http://www.w3.org/1999/xlink">
    <!-- Generator: Sketch 58 (84663) - https://sketch.com -->
    <title>icon/github</title>
    <desc>Created with Sketch.</desc>
    <defs>
        <path d="M15.9995379,7.99929114 C15.9992143,11.4411147 13.7977982,14.4970656 10.5332579,15.5874445 C10.1272579,15.6655645 9.98316453,15.4167178 9.98316453,15.2028378 C9.98316453,14.9405845 9.99298453,14.0779311 9.99298453,13.0086645 C10.0340019,12.4597191 9.83602158,11.9197933 9.44986453,11.5274845 C11.2320645,11.3294845 13.1025312,10.6533445 13.1025312,7.58070448 C13.1150059,6.786084 12.8204462,6.01728295 12.2802045,5.43443114 C12.5243224,4.74447827 12.4958486,3.98735937 12.2005979,3.31769114 C12.2005979,3.31769114 11.5301312,3.10262448 10.0028245,4.13762448 C8.69174601,3.77866463 7.30828971,3.77866463 5.99721119,4.13762448 C4.46895119,3.10262448 3.79725786,3.31769114 3.79725786,3.31769114 C3.50279997,3.98760475 3.4747541,4.74456445 3.71883119,5.43443114 C3.17865817,6.01739463 2.8837652,6.78600913 2.89538453,7.58067781 C2.89538453,10.6456578 4.76293119,11.3318378 6.53938453,11.5336911 C6.24809544,11.8182199 6.06797899,12.197411 6.03147786,12.6029645 C5.63510973,12.82591 5.16605343,12.8811164 4.7287538,12.7562908 C4.29145417,12.6314652 3.92221848,12.3369714 3.70326453,11.9383845 C3.44389068,11.4892528 2.99165775,11.1850553 2.47788453,11.1141245 C2.47788453,11.1141245 1.69655119,11.1040645 2.42293119,11.6003245 C2.84909308,11.8718846 3.16412694,12.286857 3.31115786,12.7703245 C3.31115786,12.7703245 3.78071119,14.3258445 6.00603786,13.8424978 C6.00991786,14.5099711 6.01684453,15.0129645 6.01684453,15.2028378 C6.01684453,15.4148045 5.87084453,15.6617311 5.47084453,15.5883778 C1.59418545,14.2961862 -0.685274673,10.2898503 0.184461658,6.2971315 C1.05419799,2.30441269 4.7934732,-0.390858484 8.85635735,0.046425368 C12.9192415,0.48370922 15.9993429,3.91294257 15.9995379,7.99929114 L15.9995379,7.99929114 Z" id="path-1"></path>
    </defs>
    <g id="icon/github" stroke="none" stroke-width="1" fill="none" fill-rule="evenodd">
        <g id="swatch/black">
            <mask id="mask-2" fill="white">
                <use xlink:href="#path-1"></use>
            </mask>
            <use id="Mask" fill="#000000" xlink:href="#path-1"></use>
            <g mask="url(#mask-2)" fill="#000000" id="Rectangle">
                <rect x="0" y="0" width="20" height="20"></rect>
            </g>
        </g>
    </g>
</svg>