<?xml version="1.0" encoding="UTF-8"?>
<svg width="16px" height="16px" viewBox="0 0 16 16" version="1.1" xmlns="http://www.w3.org/2000/svg" xmlns:xlink="http://www.w3.org/1999/xlink">
    <!-- Generator: Sketch 58 (84663) - https://sketch.com -->
    <title>icon/linkedin</title>
    <desc>Created with Sketch.</desc>
    <defs>
        <path d="M14.8158467,-0.000170771998 L1.18098667,-0.000170771998 C0.536560003,-0.00738180612 0.00803026416,0.508721451 0,1.15313944 L0,14.8453994 C0.00774681451,15.4901443 0.536231791,16.0067856 1.18098667,16 L14.8158467,16 C15.4614091,16.0074146 15.9912228,15.4909497 16.0002,14.8454061 L16.0002,1.15313944 C15.9909434,0.507920061 15.4610837,-0.00801109138 14.8158467,-0.000170771998 Z M4.74543333,13.6340194 L2.37217333,13.6340194 L2.37217333,5.99839278 L4.74543333,5.99839278 L4.74543333,13.6340194 Z M3.55934667,4.9545863 C3.00281359,4.95487461 2.5009118,4.61987233 2.28769541,4.10580238 C2.07447901,3.59173243 2.19194134,2.99984179 2.58530567,2.60614947 C2.97867001,2.21245714 3.57046254,2.09450152 4.08471002,2.30728939 C4.5989575,2.52007725 4.93437798,3.02169965 4.93455333,3.57823278 C4.93458669,4.33793786 4.31905151,4.95398628 3.55934667,4.9545863 L3.55934667,4.9545863 Z M13.6340133,13.6340394 L11.26248,13.6340394 L11.26248,9.92081278 C11.26248,9.03495944 11.2462067,7.89601944 10.0293,7.89601944 C8.79438667,7.89601944 8.6053,8.86068611 8.6053,9.85668611 L8.6053,13.6340394 L6.23382,13.6340394 L6.23382,5.99839278 L8.51029333,5.99839278 L8.51029333,7.04163944 L8.54188,7.04163944 C9.00574458,6.24805889 9.86864546,5.77409623 10.7872133,5.80835278 C13.1903067,5.80835278 13.6340133,7.38983944 13.6340133,9.44568611 L13.6340133,13.6340394 Z" id="path-1"></path>
    </defs>
    <g id="icon/linkedin" stroke="none" stroke-width="1" fill="none" fill-rule="evenodd">
        <g id="swatch/black" transform="translate(0.000000, 0.000171)">
            <mask id="mask-2" fill="white">
                <use xlink:href="#path-1"></use>
            </mask>
            <use id="Mask" fill="#000000" fill-rule="nonzero" xlink:href="#path-1"></use>
            <g mask="url(#mask-2)" fill="#000000" id="Rectangle">
                <g transform="translate(-2.000000, -4.000000)">
                    <rect x="0" y="0" width="20" height="20"></rect>
                </g>
            </g>
        </g>
    </g>
</svg>