<?xml version="1.0" encoding="UTF-8"?>
<svg width="16px" height="16px" viewBox="0 0 16 16" version="1.1" xmlns="http://www.w3.org/2000/svg" xmlns:xlink="http://www.w3.org/1999/xlink">
    <!-- Generator: Sketch 58 (84663) - https://sketch.com -->
    <title>icon/medium</title>
    <desc>Created with Sketch.</desc>
    <defs>
        <path d="M0,0 L0,16 L16,16 L16,0 L0,0 Z M13.2923067,3.79085333 L12.43422,4.61358667 C12.3602503,4.66996671 12.3235558,4.76265229 12.3388867,4.85438667 L12.3388867,10.89946 C12.3235543,10.9911945 12.360249,11.0838809 12.43422,11.14026 L13.27222,11.9629933 L13.27222,12.1435867 L9.05705333,12.1435867 L9.05705333,11.9629933 L9.92518,11.1201933 C10.0105133,11.0349133 10.0105133,11.0098267 10.0105133,10.8793933 L10.0105133,5.99316667 L7.59681333,12.12352 L7.27064667,12.12352 L4.46052667,5.99316667 L4.46052667,10.1018333 C4.4370972,10.2745798 4.49446675,10.4484981 4.61608,10.5734 L5.74514667,11.9429467 L5.74514667,12.12354 L2.54358667,12.12354 L2.54358667,11.9429467 L3.67266667,10.57338 C3.79339623,10.4482716 3.84742384,10.2731998 3.81819333,10.1018133 L3.81819333,5.35103333 C3.8315321,5.21907271 3.78119875,5.08865268 3.68266667,4.99986667 L2.67907333,3.79085333 L2.67907333,3.61025333 L5.79533333,3.61025333 L8.204,8.8928 L10.3216267,3.61025333 L13.2923067,3.61025333 L13.2923067,3.79085333 Z" id="path-1"></path>
    </defs>
    <g id="icon/medium" stroke="none" stroke-width="1" fill="none" fill-rule="evenodd">
        <g id="swatch/black">
            <mask id="mask-2" fill="white">
                <use xlink:href="#path-1"></use>
            </mask>
            <use id="Mask" fill="#000000" fill-rule="nonzero" xlink:href="#path-1"></use>
            <g mask="url(#mask-2)" fill="#000000" id="Rectangle">
                <rect x="0" y="0" width="20" height="20"></rect>
            </g>
        </g>
    </g>
</svg>