<?xml version="1.0" encoding="UTF-8"?>
<svg width="20px" height="16px" viewBox="0 0 20 16" version="1.1" xmlns="http://www.w3.org/2000/svg" xmlns:xlink="http://www.w3.org/1999/xlink">
    <!-- Generator: Sketch 58 (84663) - https://sketch.com -->
    <title>icon/twitter</title>
    <desc>Created with Sketch.</desc>
    <defs>
        <path d="M17.9511615,3.99224066 C17.9591846,4.16548103 17.9591846,4.33869112 17.9591846,4.51193904 C17.9585448,8.70746516 15.6335836,12.5690848 11.8940884,14.5856964 C8.15459322,16.6023079 3.59517766,16.4532517 0,14.1968555 C0.323988741,14.2350593 0.650073007,14.2534673 0.976376923,14.2519737 C2.8252454,14.254263 4.62105596,13.6440673 6.07443077,12.5197138 C4.31859657,12.4885884 2.77749354,11.3617234 2.24089231,9.71660442 C2.85465085,9.83090531 3.48677215,9.80667435 4.08963077,9.64573715 C2.17656725,9.26118537 0.802075261,7.60618349 0.800323077,5.68513903 L0.800323077,5.63002088 C1.37050945,5.93890651 2.00653768,6.11153902 2.65704615,6.1339777 C0.856587602,4.94548852 0.300296926,2.58757897 1.38454615,0.740322841 C3.46858122,3.26353153 6.54345985,4.7976008 9.84392308,4.96073988 C9.77684649,4.65804477 9.74198165,4.3493018 9.73989231,4.03950317 C9.7395908,2.38238032 10.7682271,0.893238033 12.3343885,0.283487524 C13.9005499,-0.326262984 15.6863741,0.0671309991 16.8387154,1.2757325 C17.758936,1.10007925 18.6415302,0.769799573 19.4477923,0.299377647 C19.1400541,1.2356969 18.4973415,2.03029442 17.6390462,2.53556402 C18.4537031,2.43872855 19.2493075,2.22380323 20,1.8977737 C19.4488625,2.71006899 18.7550834,3.41929887 17.9511615,3.99224066 Z" id="path-1"></path>
    </defs>
    <g id="icon/twitter" stroke="none" stroke-width="1" fill="none" fill-rule="evenodd">
        <g id="swatch/gray">
            <mask id="mask-2" fill="white">
                <use xlink:href="#path-1"></use>
            </mask>
            <use id="Mask" fill="#000000" fill-rule="nonzero" xlink:href="#path-1"></use>
            <g id="swatch/black" mask="url(#mask-2)" fill="#000000">
                <g transform="translate(0.000000, -2.000000)" id="Rectangle">
                    <rect x="0" y="0" width="20" height="20"></rect>
                </g>
            </g>
        </g>
    </g>
</svg>