<?xml version="1.0" encoding="UTF-8"?>
<svg width="53px" height="57px" viewBox="0 0 53 57" version="1.1" xmlns="http://www.w3.org/2000/svg" xmlns:xlink="http://www.w3.org/1999/xlink">
    <!-- Generator: Sketch 58 (84663) - https://sketch.com -->
    <title>Angular</title>
    <desc>Created with Sketch.</desc>
    <g id="Page-1" stroke="none" stroke-width="1" fill="none" fill-rule="evenodd">
        <g id="Desktop" transform="translate(-581.000000, -974.000000)">
            <g id="Tools-I-use" transform="translate(500.000000, 751.000000)">
                <g id="Tools" transform="translate(0.000000, 223.000000)">
                    <g id="Angular" transform="translate(81.184510, 0.000000)">
                        <g id="Angular_full_color_logo">
                            <polygon id="Path" fill="#DD0031" fill-rule="nonzero" points="26.5 0 26.5 0 26.5 0 0.253723404 9.462 4.25691489 44.5455 26.5 57 26.5 57 26.5 57 48.7430851 44.5455 52.7462766 9.462"></polygon>
                            <polygon id="Path" fill="#C3002F" fill-rule="nonzero" points="26.5 0 26.5 6.327 26.5 6.2985 26.5 35.169 26.5 35.169 26.5 57 26.5 57 48.7430851 44.5455 52.7462766 9.462"></polygon>
                            <path d="M26.5,6.2985 L10.0925532,43.491 L10.0925532,43.491 L16.2101064,43.491 L16.2101064,43.491 L19.5085106,35.169 L33.4351064,35.169 L36.7335106,43.491 L36.7335106,43.491 L42.8510638,43.491 L42.8510638,43.491 L26.5,6.2985 L26.5,6.2985 L26.5,6.2985 L26.5,6.2985 L26.5,6.2985 Z M31.2925532,30.039 L21.7074468,30.039 L26.5,18.3825 L31.2925532,30.039 Z" id="Shape" fill="#FFFFFF" fill-rule="nonzero"></path>
                        </g>
                    </g>
                </g>
            </g>
        </g>
    </g>
</svg>