<?xml version="1.0" encoding="UTF-8"?>
<svg width="120px" height="43px" viewBox="0 0 120 43" version="1.1" xmlns="http://www.w3.org/2000/svg" xmlns:xlink="http://www.w3.org/1999/xlink">
    <!-- Generator: Sketch 58 (84663) - https://sketch.com -->
    <title>CapitalOne</title>
    <desc>Created with Sketch.</desc>
    <g id="Page-1" stroke="none" stroke-width="1" fill="none" fill-rule="evenodd">
        <g id="Desktop" transform="translate(-811.000000, -2074.000000)">
            <g id="Brands" transform="translate(500.000000, 1828.000000)">
                <g id="Group-8" transform="translate(0.000000, 199.000000)">
                    <g id="CapitalOne" transform="translate(311.000000, 47.000000)">
                        <g id="Capital_One_logo">
                            <path d="M81.5390523,31.0983224 C81.5323239,31.1050725 81.5255954,31.1050725 81.5255954,31.1118227 C76.4388837,34.723151 70.4169168,38.5167333 63.937415,42.4993197 L63.6817337,42.6478229 C63.5942638,42.7085743 63.5740784,42.8300769 63.6346345,42.9178288 C63.6951906,43.0055807 63.8163028,43.0258311 63.9037727,42.9650798 L64.1190832,42.8503273 C69.6162307,39.974765 75.9275211,36.5591908 82.2791823,33.0558648 C82.3128246,33.0356144 82.3464669,33.015364 82.3801091,33.0018637 C82.0302295,32.4213511 81.7409059,31.7868373 81.5390523,31.0983224 L81.5390523,31.0983224 Z M114.912187,3.99648433 C106.898598,-4.87320811 55.324993,3.105465 33.3969593,7.91156928 L32.8855968,8.01957162 C32.7779415,8.03982206 32.7106569,8.14107426 32.7308423,8.24232645 C32.7510277,8.3503288 32.8519545,8.41783026 32.9528813,8.39757982 L33.4575154,8.29632763 C51.6243429,5.04950718 89.4113442,0.553909639 97.5393175,8.6405851 C100.022117,11.1111387 99.4300132,14.2837075 96.5502346,18.036789 C98.0977792,19.0358106 99.2012458,20.6085948 99.6991514,22.5728874 C110.935671,15.0937251 118.478268,7.94532001 114.912187,3.99648433 L114.912187,3.99648433 Z" id="Shape" fill="#D03027" fill-rule="nonzero"></path>
                            <g id="Group" transform="translate(0.000000, 16.862745)" fill="#004977" fill-rule="nonzero">
                                <path d="M84.4449438,11.4186391 C84.5460674,14.5925824 86.5213483,17.1963152 89.0898876,17.1963152 C94.0719101,17.1963152 96.1955056,10.9583486 96.047191,6.79512418 C95.9393258,3.61431082 93.9168539,1.01744238 91.3483146,1.01744238 C87.0674157,1.01057807 84.2966292,7.22106463 84.4449438,11.4186391 L84.4449438,11.4186391 Z M81.8157303,11.2468889 C81.6337079,5.82645316 85.8,0.282357298 91.8539326,0.282357298 C95.8988764,0.282357298 98.5483146,3.0303602 98.6966292,7.24167466 C98.8921348,12.9575207 94.9955056,18.2062062 88.6651685,18.2062062 C84.6067416,18.2062062 81.9573034,15.4650733 81.8157303,11.2468889 L81.8157303,11.2468889 Z" id="Shape"></path>
                                <path d="M24.4806742,9.81792738 C24.2649438,9.90036747 23.9885393,9.98280755 23.6379775,10.0583776 C23.2941573,10.1408177 22.6604494,10.2507378 21.7435955,10.401878 C21.1098876,10.5049281 20.6716854,10.6354582 20.4222472,10.8209484 C20.1862921,10.9995686 20.0447191,11.2125389 20.0042697,11.4804691 C19.9570787,11.7621394 20.0447191,11.9819797 20.2806742,12.1605999 C20.5233708,12.33235 20.9278652,12.4216601 21.5008989,12.4216601 C21.9323596,12.4216601 22.3503371,12.3529601 22.7548315,12.2155599 C23.1660674,12.0781598 23.5166292,11.8926696 23.7795506,11.6590893 C23.9750562,11.4873391 24.1166292,11.2674989 24.2244944,10.9995686 C24.2919101,10.8209484 24.3795506,10.429358 24.4806742,9.81792738 L24.4806742,9.81792738 Z M29.7391011,6.48597386 C29.7188764,6.98061438 29.631236,7.42029484 29.5031461,8.18286565 L28.6132584,13.273541 C28.5391011,13.7269615 28.7008989,14.0773319 29.1121348,14.3246521 L29.0851685,14.5238824 L23.9885393,14.5170123 L23.9413483,13.225451 C23.1997753,13.6788715 22.3031461,14.0635919 21.4941573,14.2903021 C20.6851685,14.5032723 20.031236,14.5925824 19.0537079,14.5925824 C17.408764,14.5925824 16.4649438,14.4208322 15.8110112,13.8368816 C15.1503371,13.239191 14.8267416,12.8407306 14.8604494,12.0163297 C14.8874157,11.5422992 15.1301124,10.9308686 15.4739326,10.5049281 C15.8244944,10.0721176 16.3098876,9.79044735 16.8289888,9.53625708 C17.3548315,9.28206681 17.9750562,9.09657662 18.8716854,8.95230646 C19.7750562,8.8011663 21.0289888,8.65689615 22.7076404,8.512626 C23.5907865,8.43705592 24.1301124,8.2309557 24.3795506,8.12790559 C24.7301124,7.99050545 24.8716854,7.83249528 24.9188764,7.54395497 C25.0132584,7.02183442 24.8514607,6.7195541 24.1638202,6.58215396 C22.3301124,6.21117357 18.8851685,6.82260421 17.1121348,7.26915468 L18.0761798,4.61733188 C20.4155056,4.26696151 22.6065169,4.04712128 24.9188764,4.04712128 C28.6065169,4.04712128 29.7795506,5.1119724 29.7391011,6.48597386 L29.7391011,6.48597386 Z" id="Shape"></path>
                                <path d="M44.5166292,14.5170123 L46.2829213,4.34253159 L51.1638202,4.34253159 L49.3975281,14.5170123 L44.5166292,14.5170123 Z M46.5525843,1.9861191 C46.7008989,1.14797821 47.9952809,0.474717502 49.4379775,0.474717502 C50.8874157,0.474717502 51.9458427,1.15484822 51.8042697,1.9861191 C51.6492135,2.82425999 50.361573,3.5043907 48.9053933,3.5043907 C47.4626966,3.5043907 46.4110112,2.82425999 46.5525843,1.9861191 L46.5525843,1.9861191 Z" id="Shape"></path>
                                <path d="M68.494382,9.8385374 C68.2719101,9.91410748 67.988764,9.99654757 67.6449438,10.0789877 C67.3011236,10.1614277 66.6674157,10.2644779 65.7505618,10.415618 C65.1235955,10.5186681 64.6786517,10.6491983 64.4359551,10.8346885 C64.2,11.0064386 64.0651685,11.2262789 64.011236,11.4873391 C63.9573034,11.7690094 64.058427,11.9957197 64.2876404,12.1674699 C64.5370787,12.33922 64.941573,12.4216601 65.5146067,12.4216601 C65.9393258,12.4216601 66.3573034,12.3598301 66.7685393,12.2292999 C67.1865169,12.0850298 67.5303371,11.9064096 67.8,11.6728293 C67.988764,11.5010792 68.1303371,11.2743689 68.2314607,11.0133086 C68.2988764,10.8415585 68.3865169,10.449968 68.494382,9.8385374 L68.494382,9.8385374 Z M73.752809,6.49971387 C73.7325843,7.0012244 73.6449438,7.44090487 73.5101124,8.19660566 L72.6269663,13.2941511 C72.552809,13.7407015 72.7146067,14.0979419 73.1258427,14.3452622 L73.0988764,14.5238824 L68.0022472,14.5307524 L67.9617978,13.232321 C67.2202247,13.6926115 66.3168539,14.0773319 65.5146067,14.2971721 C64.705618,14.5170123 64.0516854,14.6063224 63.0606742,14.6063224 C61.4157303,14.6063224 60.4786517,14.4414423 59.8247191,13.8506216 C59.1573034,13.246061 58.8404494,12.8544706 58.8741573,12.0300697 C58.894382,11.5491692 59.1370787,10.9377386 59.4876404,10.5186681 C59.8382022,10.0789877 60.3235955,9.80418736 60.8494382,9.5499971 C61.3752809,9.29580683 61.9955056,9.11031663 62.8853933,8.95917647 C63.788764,8.81490632 65.0494382,8.66376616 66.7280899,8.51949601 C67.6044944,8.44392593 68.1438202,8.24469572 68.3932584,8.14164561 C68.7505618,8.00424546 68.8853933,7.84623529 68.9393258,7.55082498 C69.0269663,7.03557444 68.8719101,6.73329412 68.1910112,6.58902397 C66.3438202,6.21804357 62.9123596,6.82947422 61.1393258,7.27602469 L62.0966292,4.62420189 C64.4426966,4.27383152 66.6269663,4.05399129 68.9393258,4.05399129 C72.6134831,4.06086129 73.7865169,5.13258243 73.752809,6.49971387 L73.752809,6.49971387 Z" id="Shape"></path>
                                <path d="M14.1997753,10.8621685 C12.608764,11.1850588 11.7188764,11.308719 10.1480899,11.308719 C7.81550562,11.308719 5.96157303,10.1270777 6.06269663,7.96302542 C6.13685393,6.52032389 7.80876404,3.48378068 12.0626966,3.48378068 C13.4042697,3.48378068 14.4492135,3.72423094 15.8582022,4.5417618 L16.478427,1.01057807 C14.5638202,0.275487291 13.2964045,0.165567175 11.6514607,0.17930719 C6.0694382,0.241137255 0.716629213,2.82425999 0.0492134831,8.07981554 C-0.62494382,13.4178112 5.77280899,14.7574626 8.61101124,14.7438269 C10.2492135,14.7368526 11.9548315,14.6681525 13.5458427,14.5032723 L14.1997753,10.8621685 Z" id="Path"></path>
                                <path d="M53.8537079,4.28757153 L54.2042697,2.21282934 L59.3076404,1.07927814 L58.761573,4.28070153 L61.2626966,4.28070153 L60.7907865,6.32796369 L58.3638202,6.32109368 L56.8874157,14.5032723 C56.8874157,14.5032723 51.972809,14.4689223 51.9525843,14.5032723 L53.4222472,6.3417037 L51.5750562,6.3417037 L51.9525843,4.28070153 L53.8537079,4.28070153 L53.8537079,4.28757153 Z" id="Path"></path>
                                <polygon id="Path" points="81.0831258 0.460695178 78.7100921 14.50986 73.7415528 14.51673 76.2426764 0.323295033"></polygon>
                                <path d="M38.0582022,6.72642411 C37.4177528,6.72642411 36.8379775,6.92565432 36.325618,7.31724473 C35.8132584,7.71570516 35.4896629,8.29278577 35.361573,9.05535657 C35.2065169,9.94158751 35.3008989,10.5804982 35.6447191,10.9720886 C35.9952809,11.363679 36.4941573,11.5629092 37.1548315,11.5629092 C37.5997753,11.5629092 38.0582022,11.4804691 38.3952809,11.308719 C38.8132584,11.0820087 39.1031461,10.8484285 39.3525843,10.4705781 C39.6222472,10.0789877 39.7975281,9.63930719 39.8919101,9.13092665 C40.0334831,8.3271358 39.9121348,7.72944517 39.5480899,7.33098475 C39.1907865,6.93252433 38.6986517,6.72642411 38.0582022,6.72642411 L38.0582022,6.72642411 Z M29.172809,18.0275861 L31.5525843,4.39749165 L35.8402247,4.39749165 L35.5098876,6.13560349 C35.8806742,5.61348293 36.4739326,5.18754248 37.2964045,4.84404212 C38.125618,4.50054176 39.0559551,4.24635149 40.067191,4.24635149 C41.1862921,4.24635149 41.8739326,4.30818155 42.7098876,4.74786202 C43.5391011,5.19441249 44.125618,5.84019317 44.4357303,6.67833406 C44.7593258,7.50273493 44.8267416,8.43705592 44.6514607,9.44694699 C44.361573,11.1300988 43.5593258,12.4491402 42.2379775,13.4246812 C40.9301124,14.4002222 39.7503371,14.6544125 38.0716854,14.6612825 C37.478427,14.6612825 36.9795506,14.5994524 36.5683146,14.4964023 C36.1638202,14.3864822 35.8402247,14.2559521 35.5975281,14.0979419 C35.361573,13.9399317 35.1121348,13.7132215 34.7952809,13.3559811 L33.9997753,18.0275861 L29.172809,18.0275861 Z" id="Shape"></path>
                                <path d="M117.768539,7.97676543 C117.741573,7.15923457 117.337079,6.60276398 116.507865,6.60276398 C114.505618,6.60276398 112.375281,10.6011082 112.011236,12.2087076 C115.294382,12.2155599 117.849438,10.2232578 117.768539,7.97676543 L117.768539,7.97676543 Z M118.2,14.2422121 L118.58427,14.5101423 C117.606742,16.5367945 115.617978,18.1649862 113.285393,18.1649862 C111.377528,18.1649862 109.806742,16.8665548 109.725843,14.4345723 C109.570787,10.0721176 113.582022,6.02568337 116.865169,6.02568337 C118.274157,6.02568337 119.582022,6.65085403 119.635955,8.19660566 C119.757303,11.6659593 114.977528,12.7239405 111.829213,12.7995105 C111.72809,13.1636209 111.68764,13.5277313 111.707865,14.0773319 C111.761798,15.5131634 112.611236,16.7222847 114.377528,16.7222847 C115.901124,16.7222847 117.424719,15.4719434 118.2,14.2422121 L118.2,14.2422121 Z" id="Shape"></path>
                                <path d="M98.6224719,7.86684532 C98.9595506,7.81875527 99.505618,7.7569252 99.741573,7.7569252 C100.098876,7.7569252 100.435955,7.82562527 100.45618,8.18973566 C100.462921,8.40270588 100.085393,9.94845752 100.004494,10.3056979 L99.2426966,13.7269615 C98.9325843,15.128443 98.6022472,16.5917545 98.305618,17.7527858 L100.260674,17.7527858 L101.359551,12.33235 C104.710112,8.77368627 106.004494,7.61265505 106.793258,7.61265505 C107.150562,7.61265505 107.393258,7.80501525 107.413483,8.23782571 C107.433708,8.86299637 107.049438,10.2850879 106.921348,10.6972883 L105.802247,14.6475425 C105.546067,15.5337734 105.357303,16.3375643 105.377528,16.9077749 C105.411236,17.7733958 105.923596,18.1581162 106.692135,18.1581162 C108.121348,18.1581162 109.159551,16.6398446 110.062921,15.149053 L109.8,14.6612825 C109.435955,15.2589731 108.586517,16.5711445 107.919101,16.5711445 C107.710112,16.5711445 107.507865,16.4268744 107.501124,16.069634 C107.480899,15.6093435 107.669663,14.9154728 107.804494,14.4551823 L109.051685,9.82479739 C109.388764,8.54697603 109.54382,7.72944517 109.537079,7.28976471 C109.503371,6.42414379 109.011236,6.01881336 108.249438,6.01881336 C106.961798,6.01881336 105.25618,6.98061438 101.635955,11.2194089 L101.582022,11.2194089 L102.040449,9.15153667 C102.289888,8.01798548 102.532584,6.83634423 102.761798,6.01881336 C101.507865,6.47910385 99.7146067,6.99435439 98.6089888,7.21419463 L98.6224719,7.86684532 Z" id="Path"></path>
                            </g>
                        </g>
                    </g>
                </g>
            </g>
        </g>
    </g>
</svg>