<?xml version="1.0" encoding="UTF-8"?>
<svg width="91px" height="47px" viewBox="0 0 91 47" version="1.1" xmlns="http://www.w3.org/2000/svg" xmlns:xlink="http://www.w3.org/1999/xlink">
    <title>Untitled 3</title>
    <g id="Page-1" stroke="none" stroke-width="1" fill="none" fill-rule="evenodd">
        <polygon id="Shape-path" fill="#D21033" fill-rule="nonzero" points="11 20.6411357 11 0 27.0699901 0 27.0699901 4.82667547 17.7573457 4.82667547 17.7573457 8.57444702 25.1677121 8.57444702 25.1677121 13.4011225 17.7573457 13.4011225 17.7573457 20.6411357"></polygon>
        <polygon id="Shape-path" fill="#D21033" fill-rule="nonzero" points="30.1647408 20.6411357 30.1647408 0 36.9220865 0 36.9220865 20.6411357"></polygon>
        <polygon id="Shape-path" fill="#D21033" fill-rule="nonzero" points="39.7896996 0 46.6038296 0 50.2096401 13.741829 53.9574117 0 60.7715418 0 53.6450974 20.6411357 46.8593595 20.6411357"></polygon>
        <polygon id="Shape-path" fill="#D21033" fill-rule="nonzero" points="63.6391548 20.6411357 63.6391548 0 80.4757346 0 80.4757346 4.82667547 70.3965005 4.82667547 70.3965005 7.77946517 78.9141631 7.77946517 78.9141631 12.6061406 70.3965005 12.6061406 70.3965005 15.8144602 80.8732255 15.8144602 80.8732255 20.6411357"></polygon>
        <path d="M21.666226,46.2657643 L17.2938263,46.2657643 L17.0382965,44.2215253 C16.7543744,44.5338396 16.4136679,44.8745461 16.0445692,45.1584681 C15.6754705,45.4707824 15.2211951,45.7263123 14.7385276,45.95345 C14.2274678,46.1805877 13.6596236,46.3793331 13.0066028,46.5212942 C12.353582,46.6632552 11.6437768,46.7484318 10.8204028,46.7484318 C9.5143612,46.7484318 8.2367118,46.5212942 7.044239,46.095411 C5.8517663,45.6695279 4.7728623,45.0165071 3.8359194,44.1363486 C2.8989766,43.2561902 2.1607791,42.148894 1.6213272,40.8144602 C1.0818752,39.4800264 0.7979531,37.9184549 0.7979531,36.1297458 C0.7979531,34.4829977 1.053483,32.9782106 1.5361505,31.6153846 C2.0472103,30.2525586 2.7570155,29.088478 3.6939584,28.0947507 C4.6309013,27.1294156 5.7665896,26.362826 7.1010234,25.8233741 C8.4354572,25.2839221 9.9402443,25 11.6153846,25 C12.8646418,25 14.0287224,25.1703533 15.1076263,25.4826675 C16.1865302,25.7949818 17.1802575,26.2776494 18.0320238,26.9306702 C18.88379,27.583691 19.621987,28.3786728 20.189832,29.3156157 C20.786068,30.2809508 21.155167,31.388247 21.382304,32.6375041 L14.9656652,32.6375041 C14.7101354,31.7857379 14.2842522,31.1327171 13.7164081,30.6784417 C13.1201717,30.2525586 12.3819742,30.0254209 11.5018158,30.0254209 C10.8204028,30.0254209 10.2525586,30.167382 9.7698911,30.4513041 C9.2872235,30.7352261 8.8897326,31.1611093 8.5490261,31.672169 C8.2367118,32.211621 7.9811819,32.8362496 7.8108287,33.574447 C7.6404754,34.3126444 7.5552988,35.1360185 7.5552988,36.0445692 C7.5552988,36.7827666 7.6120832,37.4641796 7.7540442,38.1455926 C7.8960053,38.8270056 8.123143,39.423242 8.4354572,39.9343017 C8.7477715,40.4453615 9.2020469,40.8712446 9.7414988,41.1551667 C10.309343,41.467481 10.990756,41.6094421 11.8709145,41.6094421 C12.211621,41.6094421 12.5807197,41.5526576 12.9498184,41.4390888 C13.3189171,41.32552 13.6596236,41.1551667 14.0003301,40.9564213 C14.3126444,40.7576758 14.5965665,40.5021459 14.8520964,40.2182238 C15.0792341,39.9343017 15.2495873,39.5935952 15.3631562,39.2528887 L12.4103665,39.2528887 L12.4103665,34.8520964 L21.666226,34.8520964 L21.666226,46.2657643 Z" id="Shape-path" fill="#D21033" fill-rule="nonzero"></path>
        <path d="M25.612743,25.5678442 L32.370089,25.5678442 L32.370089,37.9184549 C32.370089,38.4295147 32.398481,38.9121822 32.483658,39.3948498 C32.540442,39.8491251 32.710796,40.246616 32.937933,40.5873225 C33.165071,40.9280291 33.505777,41.2119511 33.903268,41.4106966 C34.329152,41.6094421 34.868603,41.7230109 35.578409,41.7230109 C36.203037,41.7230109 36.685705,41.6378343 37.111588,41.4390888 C37.509079,41.2687356 37.849785,41.0132057 38.076923,40.6724992 C38.332453,40.3317927 38.502806,39.9343017 38.587983,39.4800264 C38.673159,39.0257511 38.729944,38.5146913 38.729944,37.9468471 L38.729944,25.5678442 L45.48729,25.5678442 L45.48729,37.2370419 C45.48729,40.5305381 44.692308,42.9438759 43.102344,44.4770551 C41.51238,46.0102344 38.985474,46.7484318 35.578409,46.7484318 C33.960053,46.7484318 32.540442,46.5780786 31.319577,46.2657643 C30.098712,45.95345 29.048201,45.413998 28.196434,44.6474084 C27.344668,43.8808188 26.72004,42.9154837 26.265764,41.6946187 C25.839881,40.4737537 25.612743,38.9973589 25.612743,37.2086497 L25.612743,25.5678442 L25.612743,25.5678442 Z" id="Shape-path" fill="#D21033" fill-rule="nonzero"></path>
        <polygon id="Shape-path" fill="#D21033" fill-rule="nonzero" points="62.011555 46.2089799 55.254209 46.2089799 55.254209 38.7134368 47.559921 25.5678442 55.14064 25.5678442 58.689667 32.5523275 62.238693 25.5678442 69.705844 25.5678442 62.011555 38.5998679"></polygon>
        <path d="M82.567514,31.5586002 C82.51073,31.1895015 82.397161,30.9055794 82.226808,30.6784417 C82.056454,30.4513041 81.857709,30.2809508 81.602179,30.1389898 C81.119511,29.8834599 80.551667,29.7698911 79.841862,29.7698911 C79.103665,29.7698911 78.564213,29.8834599 78.195114,30.0822054 C77.854407,30.2809508 77.684054,30.5648729 77.684054,30.9623638 C77.684054,31.3314625 77.854407,31.672169 78.195114,31.8993067 C78.53582,32.1548366 78.990096,32.3819742 79.529548,32.5523275 C80.097392,32.751073 80.72202,32.9214262 81.431826,33.0917795 C82.141631,33.2621327 82.851436,33.432486 83.618026,33.6596236 C84.356223,33.8583691 85.094421,34.113899 85.804226,34.4262133 C86.514031,34.7101354 87.13866,35.1076263 87.706504,35.5619016 C88.274348,36.0445692 88.700231,36.5840211 89.040938,37.2654341 C89.381644,37.9184549 89.551997,38.7134368 89.551997,39.6503797 C89.551997,40.8428524 89.32486,41.8933641 88.842192,42.8019148 C88.359525,43.6820733 87.706504,44.4202707 86.854738,45.0165071 C86.002971,45.6127435 84.980852,46.0386266 83.788379,46.3225487 C82.595906,46.6064708 81.289865,46.776824 79.898646,46.776824 C78.53582,46.776824 77.314955,46.5780786 76.207659,46.2089799 C75.100363,45.8398811 74.135028,45.3288214 73.368438,44.7041928 C72.573457,44.0795642 71.948828,43.3413668 71.494553,42.5179927 C71.040277,41.6946187 70.81314,40.8144602 70.756355,39.8775173 L77.229779,39.8775173 C77.37174,40.6157148 77.740839,41.1551667 78.337075,41.5242654 C78.592605,41.6946187 78.904919,41.8365797 79.245626,41.9217564 C79.586332,42.006933 79.927039,42.0637174 80.239353,42.0637174 C81.091119,42.0637174 81.772532,41.9217564 82.283592,41.6662265 C82.794652,41.4106966 83.050182,41.0415979 83.050182,40.5305381 C83.050182,40.0194784 82.766259,39.6219875 82.170023,39.3380654 C81.573787,39.0541433 80.863982,38.7986134 79.983823,38.5998679 C79.103665,38.3727303 78.138329,38.1455926 77.11621,37.8900627 C76.09409,37.6345328 75.128755,37.2654341 74.248597,36.7827666 C73.368438,36.300099 72.630241,35.6754705 72.062397,34.8520964 C71.46616,34.0571146 71.182238,32.9782106 71.182238,31.672169 C71.182238,30.5932651 71.409376,29.62793 71.863651,28.7761638 C72.317927,27.9527897 72.942555,27.2429845 73.737537,26.7035325 C74.532519,26.1640806 75.469462,25.7381974 76.548366,25.4826675 C77.62727,25.1987455 78.819742,25.0567844 80.125784,25.0567844 C81.545395,25.0567844 82.794652,25.2271377 83.845163,25.5678442 C84.895675,25.9085507 85.775834,26.3912182 86.485639,26.9590624 C87.195444,27.5552988 87.763288,28.2367118 88.160779,29.0316936 C88.55827,29.8266755 88.8138,30.6784417 88.927369,31.5586002 L82.567514,31.5586002 Z" id="Shape-path" fill="#D21033" fill-rule="nonzero"></path>
        <path d="M89.495213,28.7477715 C89.296467,28.7477715 89.097722,28.7193793 88.898977,28.6342027 C88.728623,28.5490261 88.55827,28.4354572 88.416309,28.3218884 C88.274348,28.1799274 88.160779,28.0379663 88.103995,27.8392209 C88.018818,27.6688676 87.990426,27.4701221 87.990426,27.2429845 C87.990426,27.044239 88.018818,26.8454936 88.103995,26.6467481 C88.189171,26.4763948 88.30274,26.3060416 88.416309,26.1640805 C88.55827,26.0221195 88.700231,25.9085507 88.898977,25.8517663 C89.06933,25.7665896 89.268075,25.7381974 89.495213,25.7381974 C89.693958,25.7381974 89.892704,25.7665896 90.091449,25.8517663 C90.261803,25.9369429 90.432156,26.0505117 90.574117,26.1640805 C90.716078,26.3060416 90.829647,26.4480026 90.886431,26.6467481 C90.971608,26.8171013 91,27.0158468 91,27.2429845 C91,27.4417299 90.971608,27.6404754 90.886431,27.8392209 C90.801255,28.0095741 90.687686,28.1799274 90.574117,28.3218884 C90.432156,28.4638495 90.290195,28.5774183 90.091449,28.6342027 C89.892704,28.7193793 89.722351,28.7477715 89.495213,28.7477715 Z M89.495213,28.407065 C89.665566,28.407065 89.807527,28.3786728 89.949488,28.3218884 C90.091449,28.265104 90.205018,28.1799274 90.290195,28.0947507 C90.375371,27.9811819 90.460548,27.8676131 90.517332,27.725652 C90.574117,27.583691 90.602509,27.4417299 90.602509,27.2713767 C90.602509,27.1010234 90.574117,26.9590624 90.517332,26.8171013 C90.460548,26.6751403 90.375371,26.5615715 90.290195,26.4480026 C90.205018,26.3344338 90.063057,26.2776494 89.949488,26.220865 C89.807527,26.1640805 89.665566,26.1356883 89.495213,26.1356883 C89.32486,26.1356883 89.182899,26.1640805 89.040938,26.220865 C88.898977,26.2776494 88.785408,26.362826 88.700231,26.4480026 C88.615054,26.5615715 88.529878,26.6751403 88.473093,26.8171013 C88.416309,26.9590624 88.387917,27.1010234 88.387917,27.2713767 C88.387917,27.4417299 88.416309,27.583691 88.473093,27.725652 C88.529878,27.8676131 88.615054,27.9811819 88.700231,28.0947507 C88.785408,28.2083196 88.927369,28.265104 89.040938,28.3218884 C89.182899,28.3786728 89.353252,28.407065 89.495213,28.407065 Z M90.261803,28.0663585 L89.864312,28.0663585 L89.495213,27.3849455 L89.211291,27.3849455 L89.211291,28.0663585 L88.870584,28.0663585 L88.870584,26.4480026 L89.665566,26.4480026 C89.892704,26.4480026 90.034665,26.4763948 90.148234,26.5615715 C90.261803,26.6183559 90.290195,26.7603169 90.290195,26.9590624 C90.290195,27.1010234 90.261803,27.2145923 90.176626,27.2713767 C90.091449,27.3281611 89.97788,27.3849455 89.835919,27.3849455 L90.261803,28.0663585 Z M89.665566,27.1294156 C89.750743,27.1294156 89.835919,27.1294156 89.892704,27.0726312 C89.949488,27.044239 89.97788,26.9874546 89.97788,26.8738858 C89.97788,26.8171013 89.97788,26.7887091 89.949488,26.7603169 C89.921096,26.7319247 89.892704,26.7035325 89.864312,26.7035325 C89.835919,26.7035325 89.779135,26.6751403 89.750743,26.6751403 L89.268075,26.6751403 L89.268075,27.1294156 L89.665566,27.1294156 L89.665566,27.1294156 Z" id="Shape" fill="#CF0A2C" fill-rule="nonzero"></path>
    </g>
</svg>