<?xml version="1.0" encoding="UTF-8"?>
<svg width="58px" height="57px" viewBox="0 0 58 57" version="1.1" xmlns="http://www.w3.org/2000/svg" xmlns:xlink="http://www.w3.org/1999/xlink">
    <!-- Generator: Sketch 58 (84663) - https://sketch.com -->
    <title>Git</title>
    <desc>Created with Sketch.</desc>
    <defs>
        <polygon id="path-1" points="0.037173913 0.0706304348 56.9306087 0.0706304348 56.9306087 57 0.037173913 57"></polygon>
    </defs>
    <g id="Page-1" stroke="none" stroke-width="1" fill="none" fill-rule="evenodd">
        <g id="Desktop" transform="translate(-882.000000, -974.000000)">
            <g id="Tools-I-use" transform="translate(500.000000, 751.000000)">
                <g id="Tools" transform="translate(0.000000, 223.000000)">
                    <g id="Git" transform="translate(382.870159, 0.000000)">
                        <g id="Git-Icon-1788C">
                            <mask id="mask-2" fill="white">
                                <use xlink:href="#path-1"></use>
                            </mask>
                            <g id="Clip-2"></g>
                            <path d="M55.8562826,26.0000543 L30.9999457,1.14433696 C29.5693696,-0.287478261 27.2478587,-0.287478261 25.8148043,1.14433696 L20.6538261,6.30655435 L27.2007717,12.8541196 C28.7224239,12.3398804 30.4677391,12.6849783 31.6802283,13.8974674 C32.9001522,15.1180109 33.2415326,16.8775761 32.7149022,18.4048043 L39.0251739,24.7150761 C40.5524022,24.1884457 42.3132065,24.528587 43.5331304,25.7503696 C45.2369348,27.4535543 45.2369348,30.2149565 43.5331304,31.9193804 C41.828087,33.6244239 39.0673043,33.6244239 37.3616413,31.9193804 C36.0797609,30.6368804 35.763163,28.7534022 36.4124674,27.17475 L30.5265978,21.2895 L30.5265978,36.7761522 C30.9417065,36.9818478 31.3338913,37.2563152 31.6802283,37.601413 C33.3840326,39.3052174 33.3840326,42.066 31.6802283,43.7722826 C29.9764239,45.4754674 27.2137826,45.4754674 25.5112174,43.7722826 C23.807413,42.066 23.807413,39.3052174 25.5112174,37.601413 C25.9319022,37.1807283 26.4201196,36.8622717 26.9399348,36.6491413 L26.9399348,21.01875 C26.4201196,20.8062391 25.9331413,20.4902609 25.5112174,20.0670978 C24.220663,18.777163 23.9102609,16.8825326 24.5719565,15.2976848 L18.1173261,8.84181522 L1.07308696,25.8848152 C-0.358108696,27.3178696 -0.358108696,29.6393804 1.07308696,31.0711957 L25.930663,55.926913 C27.3618587,57.3581087 29.68275,57.3581087 31.1164239,55.926913 L55.8562826,31.1864348 C57.2887174,29.7546196 57.2887174,27.43125 55.8562826,26.0000543" id="Fill-1" fill="#DE4C36" mask="url(#mask-2)"></path>
                        </g>
                    </g>
                </g>
            </g>
        </g>
    </g>
</svg>