<?xml version="1.0" encoding="UTF-8"?>
<svg width="48px" height="48px" viewBox="0 0 48 48" version="1.1" xmlns="http://www.w3.org/2000/svg" xmlns:xlink="http://www.w3.org/1999/xlink">
    <!-- Generator: Sketch 58 (84663) - https://sketch.com -->
    <title>GM</title>
    <desc>Created with Sketch.</desc>
    <g id="Page-1" stroke="none" stroke-width="1" fill="none" fill-rule="evenodd">
        <g id="Desktop" transform="translate(-696.000000, -2374.000000)">
            <g id="Brands" transform="translate(500.000000, 1828.000000)">
                <g id="Group-8" transform="translate(0.000000, 199.000000)">
                    <g id="GM" transform="translate(196.000000, 347.000000)">
                        <g id="General_Motors_logo">
                            <polygon id="rect4057" fill="#22559E" fill-rule="nonzero" points="5.70902318e-15 0 48 0 48 48 0 48"></polygon>
                            <polygon id="rect4059" fill="#FFFFFF" fill-rule="nonzero" points="11.7735849 31.6981132 36.2264151 31.6981132 36.2264151 36.2264151 11.7735849 36.2264151 11.7735849 31.6981132"></polygon>
                            <polyline id="polyline4061" fill="#FFFFFF" fill-rule="nonzero" points="24.4528302 11.7735849 28.405518 11.7735849 30.3396876 25.0304732 32.3168763 11.7735849 36.2264151 11.7735849 36.2264151 29.8867925 33.6213556 29.8867925 33.6213556 16.2457204 31.4256923 29.8867925 29.174533 29.8867925 27.0558102 16.2457204 27.0558102 29.8602508 24.4528302 29.8602508 24.4528302 11.7735849"></polyline>
                            <path d="M17.4610381,17.9622323 L19.9245283,17.9622323 L19.9245283,16.6700998 C19.9245283,15.4045048 19.9245283,11.7735849 15.8035708,11.7735849 C11.7735849,11.7735849 11.7735849,15.9202484 11.7735849,16.6700998 C11.7735849,17.0695346 11.7735849,25.4519519 11.7735849,26.1794634 C11.7735849,28.9557315 12.6724923,30.7747102 15.0015054,30.7924528 C16.3786336,30.7947525 17.3386664,29.8216226 17.5420611,29.4511636 L17.5420611,30.4219898 L19.9245283,30.4486639 L19.9245283,20.5352622 L16.0485542,20.5352622 L16.0485542,22.7358046 L17.4610381,22.7358046 C17.4610381,22.7358046 17.4610381,25.3000334 17.4610381,25.6327136 C17.4610381,27.1012756 17.0541333,28.100943 15.8431222,28.100943 C14.6300755,28.100943 14.2448637,27.036419 14.2448637,25.6327136 C14.2448637,24.7623537 14.2448637,17.2123829 14.2448637,16.6700998 C14.2448637,15.9424537 14.2448637,14.2820293 15.8431222,14.2820293 C17.4610381,14.2820293 17.4610381,15.9692623 17.4610381,16.6700998 C17.4610381,17.27927 17.4610381,17.9622323 17.4610381,17.9622323" id="path4063" fill="#FFFFFF" fill-rule="nonzero"></path>
                        </g>
                    </g>
                </g>
            </g>
        </g>
    </g>
</svg>