<?xml version="1.0" encoding="UTF-8"?>
<svg width="103px" height="34px" viewBox="0 0 103 34" version="1.1" xmlns="http://www.w3.org/2000/svg" xmlns:xlink="http://www.w3.org/1999/xlink">
    <!-- Generator: Sketch 58 (84663) - https://sketch.com -->
    <title>Google</title>
    <desc>Created with Sketch.</desc>
    <g id="Page-1" stroke="none" stroke-width="1" fill="none" fill-rule="evenodd">
        <g id="Desktop" transform="translate(-517.000000, -2079.000000)">
            <g id="Brands" transform="translate(500.000000, 1828.000000)">
                <g id="Group-8" transform="translate(0.000000, 199.000000)">
                    <g id="Google" transform="translate(17.000000, 52.000000)">
                        <g id="Google_2015_logo">
                            <path d="M44.3821138,17.8292683 C44.3821138,22.8424531 40.434298,26.5365854 35.5894309,26.5365854 C30.7445638,26.5365854 26.796748,22.8424531 26.796748,17.8292683 C26.796748,12.7807517 30.7445638,9.12195122 35.5894309,9.12195122 C40.434298,9.12195122 44.3821138,12.7807517 44.3821138,17.8292683 Z M40.5330922,17.8292683 C40.5330922,14.6965185 38.2450187,12.5530581 35.5894309,12.5530581 C32.9338431,12.5530581 30.6457696,14.6965185 30.6457696,17.8292683 C30.6457696,20.9306121 32.9338431,23.1054785 35.5894309,23.1054785 C38.2450187,23.1054785 40.5330922,20.9266863 40.5330922,17.8292683 Z" id="Shape" fill="#EA4335" fill-rule="nonzero"></path>
                            <path d="M62.804878,17.8292683 C62.804878,22.8424531 58.8570622,26.5365854 54.0121951,26.5365854 C49.167328,26.5365854 45.2195122,22.8424531 45.2195122,17.8292683 C45.2195122,12.7846775 49.167328,9.12195122 54.0121951,9.12195122 C58.8570622,9.12195122 62.804878,12.7807517 62.804878,17.8292683 Z M58.9558564,17.8292683 C58.9558564,14.6965185 56.667783,12.5530581 54.0121951,12.5530581 C51.3566073,12.5530581 49.0685338,14.6965185 49.0685338,17.8292683 C49.0685338,20.9306121 51.3566073,23.1054785 54.0121951,23.1054785 C56.667783,23.1054785 58.9558564,20.9266863 58.9558564,17.8292683 Z" id="Shape" fill="#FBBC05" fill-rule="nonzero"></path>
                            <path d="M79.5528455,10.4529378 L79.5528455,25.3622082 C79.5528455,31.4951527 75.9381678,34 71.6649152,34 C67.6423701,34 65.2213592,31.3079444 64.3083351,29.1063746 L67.4814683,27.7846839 C68.0464956,29.1363279 69.4309995,30.7313428 71.6611733,30.7313428 C74.396504,30.7313428 76.0915858,29.0427237 76.0915858,25.8639265 L76.0915858,24.6695374 L75.9643611,24.6695374 C75.1486264,25.6767182 73.5770274,26.5565973 71.5938191,26.5565973 C67.4440493,26.5565973 63.6422764,22.9397326 63.6422764,18.2857338 C63.6422764,13.5980375 67.4440493,9.95121951 71.5938191,9.95121951 C73.5732855,9.95121951 75.1448845,10.8310986 75.9643611,11.808326 L76.0915858,11.808326 L76.0915858,10.456682 L79.5528455,10.456682 L79.5528455,10.4529378 Z M76.3497771,18.2857338 C76.3497771,15.3615399 74.4002459,13.2236209 71.9193646,13.2236209 C69.4048062,13.2236209 67.2981151,15.3615399 67.2981151,18.2857338 C67.2981151,21.1799744 69.4048062,23.2879401 71.9193646,23.2879401 C74.4002459,23.2879401 76.3497771,21.1799744 76.3497771,18.2857338 Z" id="Shape" fill="#4285F4" fill-rule="nonzero"></path>
                            <polygon id="Path" fill="#34A853" fill-rule="nonzero" points="85.4146341 1.65853659 85.4146341 25.7073171 82.0650407 25.7073171 82.0650407 1.65853659"></polygon>
                            <path d="M100.059792,20.6989927 L102.845252,22.6775715 C101.946241,24.0947679 99.7797724,26.5365854 96.0363499,26.5365854 C91.3939164,26.5365854 87.9268293,22.7129033 87.9268293,17.8292683 C87.9268293,12.6512019 91.4233922,9.12195122 95.6347425,9.12195122 C99.8755686,9.12195122 101.949926,12.7179397 102.627868,14.6611867 L103,15.6504761 L92.0755436,20.4712991 C92.9119185,22.2182586 94.2125367,23.1094042 96.0363499,23.1094042 C97.8638475,23.1094042 99.1313055,22.1515208 100.059792,20.6989927 Z M91.4860282,17.5662429 L98.7886497,14.3353494 C98.3870423,13.2479162 97.1785359,12.4902461 95.7563301,12.4902461 C93.9325169,12.4902461 91.3939164,14.2057996 91.4860282,17.5662429 L91.4860282,17.5662429 Z" id="Shape" fill="#EA4335" fill-rule="nonzero"></path>
                            <path d="M13.5115494,15.772471 L13.5115494,12.1471913 L25.7775452,12.1471913 C25.8974587,12.7790148 25.9593496,13.5264157 25.9593496,14.3354579 C25.9593496,17.0553809 25.212791,20.418685 22.8067837,22.8149911 C20.4665353,25.2421178 17.4764329,26.5365854 13.5154176,26.5365854 C6.17361376,26.5365854 0,20.5804935 0,13.2682927 C0,5.9560919 6.17361376,0 13.5154176,0 C17.5770056,0 20.4704035,1.58726382 22.6443201,3.65610039 L20.0758493,6.21421489 C18.5169731,4.75793887 16.4049473,3.62527974 13.5115494,3.62527974 C8.15025325,3.62527974 3.95714717,7.92861392 3.95714717,13.2682927 C3.95714717,18.6079714 8.15025325,22.9113056 13.5115494,22.9113056 C16.9890424,22.9113056 18.9695501,21.5205235 20.2383128,20.2568766 C21.2672484,19.2320897 21.9441797,17.7681086 22.2110841,15.7686185 L13.5115494,15.772471 Z" id="Path" fill="#4285F4" fill-rule="nonzero"></path>
                        </g>
                    </g>
                </g>
            </g>
        </g>
    </g>
</svg>