<?xml version="1.0" encoding="UTF-8"?>
<svg width="120px" height="46px" viewBox="0 0 120 46" version="1.1" xmlns="http://www.w3.org/2000/svg" xmlns:xlink="http://www.w3.org/1999/xlink">
    <!-- Generator: Sketch 58 (84663) - https://sketch.com -->
    <title>Kraft</title>
    <desc>Created with Sketch.</desc>
    <g id="Page-1" stroke="none" stroke-width="1" fill="none" fill-rule="evenodd">
        <g id="Desktop" transform="translate(-811.000000, -2224.000000)">
            <g id="Brands" transform="translate(500.000000, 1828.000000)">
                <g id="Group-8" transform="translate(0.000000, 199.000000)">
                    <g id="Kraft" transform="translate(311.000000, 197.000000)">
                        <g id="Kraft_logo_2012">
                            <g id="g2993" transform="translate(60.000000, 23.000000) scale(-1, 1) rotate(-180.000000) translate(-60.000000, -23.000000) " fill-rule="nonzero">
                                <path d="M101.282206,33.3638075 C98.3121869,37.7908624 95.7217944,38.6137202 89.0876636,39.6171597 C82.9391776,40.5517189 70.4692037,41.5551584 60.2788411,41.5551584 C50.536957,41.5551584 37.6184897,40.6541119 31.3302766,39.7567865 C25.6639813,38.9246166 22.4183589,38.0980377 19.1358953,33.6393363 L14.753443,27.6615128 C13.4731327,25.8985086 13.0935065,24.4817797 13.0935065,23.2735541 C13.0935065,21.9554933 13.4731327,20.162705 14.9581421,17.9845489 L18.3450056,12.9412847 C21.3131626,8.5160922 23.9035551,7.68392602 30.5377159,6.68421138 C36.6898953,5.75337333 49.1541121,4.7536587 59.3446617,4.7536587 C69.0902692,4.7536587 82.0087477,5.64912163 88.2986168,6.54458455 C93.959514,7.37302959 97.208486,8.20333333 100.487626,12.6638972 L104.873794,18.6435793 C106.152224,20.4047211 106.529981,21.8195914 106.529981,23.031538 C106.529981,24.3440153 106.152224,26.1405285 104.670953,28.3205433 L101.282206,33.3638075 L101.282206,33.3638075 Z" id="path3053" fill="#FFFFFF"></path>
                                <path d="M104.873234,18.6430221 L100.48871,12.6633363 C97.2079252,8.2046348 93.9606355,7.37246862 88.2999252,6.54402732 C82.0081869,5.65042309 69.0897084,4.75309772 59.3441047,4.75309772 C49.1556,4.75309772 36.6891514,5.7528161 30.5390168,6.68365041 C23.9029981,7.68336878 21.3144673,8.5173974 18.3444486,12.9407275 L14.9592598,17.9839917 C13.4744374,20.1621441 13.0946243,21.9549324 13.0946243,23.2729969 C13.0946243,24.4830811 13.4744374,25.8979514 14.7528822,27.6609556 L19.1370093,33.6406377 C22.4178019,38.0974767 25.6650953,38.9259218 31.3297196,39.7562255 C37.6179327,40.6535509 50.5382579,41.5564598 60.2782804,41.5564598 C70.4705084,41.5564598 82.9386168,40.5530203 89.0889346,39.6184611 C95.7210467,38.6150216 98.3133084,37.7903015 101.281645,33.3632502 L104.672262,28.319986 C106.153346,26.1399675 106.53129,24.3453205 106.53129,23.0309808 C106.53129,21.8190304 106.153346,20.4041639 104.873234,18.6430221 L104.873234,18.6430221 Z M112.164299,36.9916442 C109.434131,41.0668441 106.74157,41.8990102 101.973907,42.7981943 C97.5877383,43.5931304 92.6822056,44.1776932 88.1210841,44.6654502 C81.4908411,45.3896398 72.7166318,45.9760688 60.590729,45.9760688 C48.4335664,45.9760688 39.3095028,45.3579933 32.5432224,44.6654502 C28.0154318,44.1776932 23.3873383,43.6266393 19.0367065,42.831707 C14.3360374,41.9641657 11.1946318,40.7931777 8.42745047,36.9916442 L1.35058318,27.348193 C0.589469159,26.3149657 0.0349158879,24.9633922 0.00327850467,23.1687415 C-0.0341233645,21.269839 0.347547664,19.9890083 1.0359028,18.9557847 L7.4618243,9.30674618 C10.1915963,5.23527122 12.8845271,4.40496748 17.6521869,3.50391724 C22.0400374,2.71084732 26.9435439,2.12628081 31.5046467,1.63666504 C38.137129,0.914334146 46.9113383,0.327908943 59.0389121,0.327908943 C71.1925421,0.327908943 80.3145421,0.944121951 87.0845607,1.63666504 C91.6103178,2.12628081 96.2367103,2.6736135 100.591065,3.47227073 C105.288224,4.33422472 108.436673,5.50893756 111.196598,9.30674618 L118.273495,18.9557847 C119.038505,19.9890083 119.59286,21.3368607 119.624673,23.1352325 C119.659813,25.0341387 119.280411,26.3149657 118.591888,27.348193 L112.164299,36.9916442 Z" id="path3055" fill="#ED114C"></path>
                                <polygon id="path13778" fill="#133A73" points="27.3254056 11.6146597 32.2642692 11.6146597 32.2642692 21.3251325 38.6900075 11.6146597 44.4234804 11.6146597 37.1696374 22.464474 45.2515888 33.4204024 39.7265346 33.4204024 32.2642692 23.1197795 32.2642692 33.4204024 27.3254056 33.4204024"></polygon>
                                <path d="M60.3836112,28.1099904 C59.1033009,28.1099904 57.1957907,27.9740885 56.3361981,27.7376559 L56.3361981,23.3627306 C57.6461308,23.7127233 58.9879252,23.8746881 59.9183813,23.8746881 C62.1998617,23.8746881 63.407671,23.1337441 63.407671,21.5476005 L63.407671,21.3614351 C62.3395065,21.6648855 61.4406093,21.7337659 60.8488374,21.7337659 C56.7380037,21.7337659 54.6613757,19.3768941 54.6613757,16.4745485 C54.6613757,13.3599745 57.0878579,11.3549541 59.9183813,11.3549541 C61.1614729,11.3549541 62.3747888,11.6714379 63.5471626,12.4719576 L63.5471626,11.6342041 L68.0599551,11.6342041 L68.0599551,21.0356429 C68.0599551,24.7012707 67.1498916,28.1099904 60.3836112,28.1099904 L60.3836112,28.1099904 Z M61.5467551,18.4293016 C61.9988822,18.4293016 62.7506916,18.3957927 63.407671,18.1500517 L63.407671,15.217922 C62.7134729,14.8660668 62.0509907,14.6594184 61.2210206,14.6594184 C60.0486467,14.6594184 58.9879252,15.2309515 58.9879252,16.4745485 C58.9879252,17.7516543 59.8570467,18.4293016 61.5467551,18.4293016 Z" id="path13776" fill="#133A73"></path>
                                <path d="M80.3502804,34.8706441 C75.2364935,35.5278158 71.855215,33.7294402 71.855215,28.3026706 L71.855215,27.7181078 L69.8510093,27.7181078 L69.8510093,23.6764207 L71.855215,23.6764207 L71.855215,11.6146597 L76.479585,11.6146597 L76.479585,23.6764207 L79.591028,23.6764207 L79.591028,27.7181078 L76.479585,27.7181078 L76.479585,28.4460185 C76.479585,31.0393265 78.4856449,31.1026233 80.3502804,30.7563517 L80.3502804,34.8706441 L80.3502804,34.8706441 Z" id="path13774" fill="#133A73"></path>
                                <path d="M81.2491215,27.7181078 L81.2491215,23.6764207 L83.1490841,23.6764207 L83.1490841,18.2142797 C83.1490841,14.5505106 84.6359626,11.3037595 90.0958879,11.3037595 C90.3694579,11.3037595 90.6411215,11.3037595 90.9500561,11.3391384 L90.9500561,15.4850772 C89.1579813,15.4850772 87.7418318,15.862999 87.7418318,18.8360837 L87.7418318,23.6764281 L91.1622056,23.6764281 L91.1622056,27.7181153 L87.7418318,27.7181153 L87.7418318,32.0725613 L83.1490841,32.0725613 L83.1490841,27.7181153 L81.2491215,27.7181153 L81.2491215,27.7181078 Z" id="path13772" fill="#133A73"></path>
                                <path d="M45.6367813,11.6146522 L50.3318841,11.6146522 L50.3318841,19.111605 C50.4360935,21.6658167 52.7454879,22.9131348 54.513357,23.1197795 L54.513357,27.6138524 C52.5054318,27.3383273 51.0557794,26.2995127 50.3318841,24.5383746 L50.3318841,24.6426263 L50.2946505,24.6072475 L50.2946505,27.6454951 L45.6367813,27.6454951 L45.6367813,11.6146522 L45.6367813,11.6146522 Z" id="path13770" fill="#133A73"></path>
                            </g>
                        </g>
                    </g>
                </g>
            </g>
        </g>
    </g>
</svg>