<?xml version="1.0" encoding="UTF-8"?>
<svg width="114px" height="25px" viewBox="0 0 114 25" version="1.1" xmlns="http://www.w3.org/2000/svg" xmlns:xlink="http://www.w3.org/1999/xlink">
    <!-- Generator: Sketch 58 (84663) - https://sketch.com -->
    <title>Microsoft</title>
    <desc>Created with Sketch.</desc>
    <g id="Page-1" stroke="none" stroke-width="1" fill="none" fill-rule="evenodd">
        <g id="Desktop" transform="translate(-663.000000, -2084.000000)">
            <g id="Brands" transform="translate(500.000000, 1828.000000)">
                <g id="Group-8" transform="translate(0.000000, 199.000000)">
                    <g id="Microsoft" transform="translate(163.000000, 57.000000)">
                        <g id="Microsoft_logo_(2012)">
                            <path d="M40.0448988,14.5610474 L39.3634594,16.4702371 L39.3066728,16.4702371 C39.1930995,16.0397335 38.984882,15.3846194 38.6441623,14.5984824 L34.9908901,5.52047254 L31.4133333,5.52047254 L31.4133333,19.9891357 L33.7794423,19.9891357 L33.7794423,11.0608662 C33.7794423,10.4993398 33.7794423,9.86294326 33.7605134,9.07680632 C33.7415845,8.68373785 33.7037268,8.38425711 33.6847979,8.15964655 L33.7415845,8.15964655 C33.8551578,8.72117294 33.9876599,9.13295896 34.0823042,9.3950046 L38.4738024,19.9517007 L40.1395431,19.9517007 L44.4931836,9.30141687 C44.5878279,9.05808877 44.6824723,8.57143257 44.7771167,8.15964655 L44.8339033,8.15964655 C44.7771167,9.22654669 44.7392589,10.1811415 44.72033,10.7613855 L44.72033,19.9329831 L47.23787,19.9329831 L47.23787,5.48303745 L43.7928153,5.48303745 L40.0448988,14.5610474 L40.0448988,14.5610474 Z M49.6229078,9.56346252 L52.0836611,9.56346252 L52.0836611,19.9329831 L49.6229078,19.9329831 L49.6229078,9.56346252 Z M50.8722133,5.18355671 C50.4557781,5.18355671 50.1150584,5.33329708 49.8311254,5.59534273 C49.5471923,5.85738837 49.3957613,6.1943042 49.3957613,6.60609022 C49.3957613,6.99915869 49.5471923,7.33607452 49.8311254,7.59812017 C50.1150584,7.86016581 50.4557781,7.99118864 50.8722133,7.99118864 C51.2886485,7.99118864 51.648297,7.84144827 51.9133012,7.59812017 C52.1972343,7.33607452 52.3486653,6.99915869 52.3486653,6.60609022 C52.3486653,6.21302175 52.1972343,5.87610592 51.9133012,5.59534273 C51.6672259,5.33329708 51.3075774,5.18355671 50.8722133,5.18355671 L50.8722133,5.18355671 Z M60.8098709,9.46987479 C60.355578,9.37628706 59.8823562,9.32013442 59.4280633,9.32013442 C58.3112598,9.32013442 57.2891008,9.56346252 56.4373016,10.0501187 C55.5855023,10.5367749 54.904063,11.2106066 54.4686989,12.0528962 C54.014406,12.9139033 53.7872595,13.9059332 53.7872595,15.0477036 C53.7872595,16.0397335 54.014406,16.9194582 54.44977,17.7243127 C54.8851341,18.5104496 55.490858,19.1468462 56.3047994,19.5773497 C57.0808832,20.0078533 57.989469,20.2324638 59.0116281,20.2324638 C60.1852181,20.2324638 61.1884483,19.9891357 61.9834609,19.5399146 L62.0023898,19.5211971 L62.0023898,17.2750915 L61.9077454,17.3499617 C61.5480969,17.6120074 61.1316617,17.8366179 60.7152265,17.9676408 C60.2798625,18.1173811 59.8823562,18.1922513 59.5416365,18.1922513 C58.5573352,18.1922513 57.7812514,17.9114881 57.2323142,17.2938091 C56.664448,16.6948476 56.3805149,15.8712756 56.3805149,14.8418105 C56.3805149,13.7749104 56.664448,12.9326208 57.251243,12.3149418 C57.838038,11.6972628 58.6141218,11.3790645 59.5605654,11.3790645 C60.355578,11.3790645 61.1695194,11.6411101 61.9077454,12.1652014 L62.0023898,12.2400716 L62.0023898,9.86294326 L61.9834609,9.84422571 C61.6616701,9.71320289 61.3020215,9.56346252 60.8098709,9.46987479 L60.8098709,9.46987479 Z M68.9303568,9.3950046 C68.3246329,9.3950046 67.7567668,9.58218006 67.2646161,9.97524853 C66.8481809,10.3121644 66.5642478,10.7988206 66.3181725,11.3790645 L66.2992436,11.3790645 L66.2992436,9.56346252 L63.8384903,9.56346252 L63.8384903,19.9329831 L66.2992436,19.9329831 L66.2992436,14.6359175 C66.2992436,13.7374753 66.4885324,12.9887735 66.9049675,12.4459646 C67.3214027,11.8844382 67.8514111,11.6036751 68.4949927,11.6036751 C68.7221392,11.6036751 68.9492857,11.6598277 69.2332187,11.6972628 C69.4982229,11.772133 69.6875117,11.8470032 69.8200138,11.9405909 L69.9146581,12.0154611 L69.9146581,9.58218006 L69.8578715,9.56346252 C69.6875117,9.45115724 69.346792,9.3950046 68.9303568,9.3950046 L68.9303568,9.3950046 Z M75.6311773,9.33885196 C73.90865,9.33885196 72.5268424,9.84422571 71.5614699,10.8362557 C70.5771686,11.8282856 70.1039468,13.1946665 70.1039468,14.9166807 C70.1039468,16.5263897 70.5960975,17.8366179 71.5425411,18.7912128 C72.4889846,19.7270901 73.7761479,20.2137463 75.385102,20.2137463 C77.0697716,20.2137463 78.4137214,19.7083726 79.3790939,18.6976251 C80.3633952,17.6868776 80.836617,16.3392142 80.836617,14.6733526 C80.836617,13.0262086 80.3823241,11.7159803 79.4548094,10.7613855 C78.5651524,9.80679062 77.2590603,9.33885196 75.6311773,9.33885196 L75.6311773,9.33885196 Z M77.59978,17.3125266 C77.1454871,17.8927706 76.4261899,18.1735338 75.536533,18.1735338 C74.646876,18.1735338 73.9275789,17.8927706 73.4164994,17.2750915 C72.9054198,16.6948476 72.6593445,15.852558 72.6593445,14.7856579 C72.6593445,13.6813227 72.9243487,12.8390331 73.4164994,12.2400716 C73.9275789,11.6411101 74.6279471,11.3416294 75.5176041,11.3416294 C76.3883322,11.3416294 77.0697716,11.6223926 77.5619222,12.2026365 C78.0540729,12.7828805 78.3190771,13.62517 78.3190771,14.7295053 C78.2812193,15.852558 78.0730018,16.7322827 77.59978,17.3125266 L77.59978,17.3125266 Z M86.3259898,13.8684981 C85.549906,13.5502999 85.0577554,13.3069718 84.8306089,13.1010787 C84.6413202,12.9139033 84.5466758,12.6518576 84.5466758,12.3149418 C84.5466758,12.0341786 84.6602491,11.7534154 84.9441821,11.56624 C85.2281152,11.3790645 85.549906,11.2854768 86.0231278,11.2854768 C86.439563,11.2854768 86.874927,11.360347 87.2913622,11.4726522 C87.7077974,11.5849575 88.0863748,11.7534154 88.3892368,11.978026 L88.4838811,12.0528962 L88.4838811,9.76935553 L88.4270945,9.75063798 C88.1431614,9.6383327 87.764584,9.52602743 87.3102911,9.43243969 C86.8559982,9.35756951 86.439563,9.32013442 86.0988433,9.32013442 C84.9252533,9.32013442 83.9598808,9.60089761 83.202726,10.2185766 C82.4455711,10.7988206 82.0859225,11.5849575 82.0859225,12.5021173 C82.0859225,12.9887735 82.161638,13.419277 82.3319979,13.7749104 C82.5023577,14.1305438 82.748433,14.4674596 83.0891527,14.7482228 C83.4298724,15.0102685 83.9220231,15.3097492 84.6034624,15.5905124 C85.1713286,15.8338405 85.6066926,16.021016 85.8716968,16.1707563 C86.136701,16.3204967 86.3070609,16.4889546 86.439563,16.6199774 C86.5342073,16.7697178 86.590994,16.9568933 86.590994,17.2002214 C86.590994,17.8927706 86.0609856,18.2296864 84.9820399,18.2296864 C84.5656047,18.2296864 84.1302407,18.1548162 83.6191611,17.9863583 C83.1080816,17.8179004 82.6348598,17.5745723 82.2373535,17.2938091 L82.1427091,17.2189389 L82.1427091,19.5960673 L82.1994958,19.6147848 C82.5591443,19.7832427 82.9945084,19.895548 83.5245168,20.0265708 C84.0545252,20.1201586 84.527747,20.1950288 84.9441821,20.1950288 C86.2124165,20.1950288 87.2535045,19.9142656 87.9917305,19.2965865 C88.7488853,18.6976251 89.1463916,17.9302057 89.1463916,16.9381757 C89.1463916,16.2456265 88.9571029,15.6279475 88.5406677,15.1600088 C87.9917305,14.7107877 87.3102911,14.2428491 86.3259898,13.8684981 L86.3259898,13.8684981 Z M95.6389946,9.33885196 C93.9164673,9.33885196 92.5346596,9.84422571 91.5692872,10.8362557 C90.6039147,11.8282856 90.1117641,13.1946665 90.1117641,14.9166807 C90.1117641,16.5263897 90.6039147,17.8366179 91.5503583,18.7912128 C92.4968019,19.7270901 93.7839652,20.2137463 95.3929192,20.2137463 C97.0775888,20.2137463 98.4215387,19.7083726 99.3869111,18.6976251 C100.371212,17.6868776 100.844434,16.3392142 100.844434,14.6733526 C100.844434,13.0262086 100.390141,11.7159803 99.4626266,10.7613855 C98.5729697,9.80679062 97.2668775,9.33885196 95.6389946,9.33885196 L95.6389946,9.33885196 Z M97.5886683,17.3125266 C97.1343754,17.8927706 96.4150783,18.1735338 95.5254213,18.1735338 C94.6168355,18.1735338 93.9164673,17.8927706 93.4053877,17.2750915 C92.8943082,16.6948476 92.6482329,15.852558 92.6482329,14.7856579 C92.6482329,13.6813227 92.9132371,12.8390331 93.4053877,12.2400716 C93.9164673,11.6411101 94.6168355,11.3416294 95.5064925,11.3416294 C96.3582917,11.3416294 97.0586599,11.6223926 97.5508106,12.2026365 C98.0429613,12.7828805 98.3079655,13.62517 98.3079655,14.7295053 C98.3079655,15.852558 98.0618901,16.7322827 97.5886683,17.3125266 L97.5886683,17.3125266 Z M114,11.56624 L114,9.56346252 L111.520318,9.56346252 L111.520318,6.49378494 L111.444602,6.51250249 L109.097422,7.2050517 L109.040636,7.22376924 L109.040636,9.56346252 L105.330577,9.56346252 L105.330577,8.25323428 C105.330577,7.65427281 105.482008,7.18633415 105.747012,6.88685341 C106.012016,6.58737267 106.409522,6.4376323 106.901673,6.4376323 C107.242393,6.4376323 107.602041,6.51250249 107.999548,6.6809604 L108.094192,6.73711304 L108.094192,4.62203032 L108.037405,4.60331278 C107.696686,4.4910075 107.242393,4.41613732 106.655598,4.41613732 C105.917372,4.41613732 105.27379,4.58459523 104.686995,4.86535842 C104.1002,5.18355671 103.664836,5.61406027 103.343045,6.1943042 C103.021254,6.75583059 102.850895,7.39222716 102.850895,8.12221146 L102.850895,9.56346252 L101.128367,9.56346252 L101.128367,11.5475224 L102.850895,11.5475224 L102.850895,19.9329831 L105.330577,19.9329831 L105.330577,11.56624 L109.040636,11.56624 L109.040636,16.9007406 C109.040636,19.0906935 110.081724,20.1950288 112.163899,20.1950288 C112.504619,20.1950288 112.864268,20.1388761 113.204987,20.0827235 C113.564636,20.0078533 113.82964,19.9142656 113.981071,19.8393954 L114,19.8206778 L114,17.8179004 L113.905356,17.8927706 C113.753925,17.9863583 113.621423,18.0612285 113.394276,18.1173811 C113.204987,18.1735338 113.034628,18.1922513 112.902125,18.1922513 C112.409975,18.1922513 112.069255,18.079946 111.82318,17.7991828 C111.596033,17.5371372 111.48246,17.1066336 111.48246,16.4702371 L111.48246,11.56624 L114,11.56624 L114,11.56624 Z" id="Shape" fill="#737373" fill-rule="nonzero"></path>
                            <polygon id="Path" fill="#F25022" fill-rule="nonzero" points="0 0.334504663 11.6533333 0.334504663 11.6533333 12.0691985 0 12.0691985"></polygon>
                            <polygon id="Path" fill="#7FBA00" fill-rule="nonzero" points="12.6666667 0.334504663 24.32 0.334504663 24.32 12.0691985 12.6666667 12.0691985"></polygon>
                            <polygon id="Path" fill="#00A4EF" fill-rule="nonzero" points="0 13.0896067 11.6533333 13.0896067 11.6533333 24.8243006 0 24.8243006"></polygon>
                            <polygon id="Path" fill="#FFB900" fill-rule="nonzero" points="12.6666667 13.0896067 24.32 13.0896067 24.32 24.8243006 12.6666667 24.8243006"></polygon>
                        </g>
                    </g>
                </g>
            </g>
        </g>
    </g>
</svg>