<?xml version="1.0" encoding="UTF-8"?>
<svg width="52px" height="57px" viewBox="0 0 52 57" version="1.1" xmlns="http://www.w3.org/2000/svg" xmlns:xlink="http://www.w3.org/1999/xlink">
    <!-- Generator: Sketch 58 (84663) - https://sketch.com -->
    <title>node.js</title>
    <desc>Created with Sketch.</desc>
    <g id="Page-1" stroke="none" stroke-width="1" fill="none" fill-rule="evenodd">
        <g id="Desktop" transform="translate(-810.000000, -974.000000)" fill="#8CC84B">
            <g id="Tools-I-use" transform="translate(500.000000, 751.000000)">
                <g id="Tools" transform="translate(0.000000, 223.000000)">
                    <g id="node.js" transform="translate(310.706150, 0.000000)">
                        <g id="nodejs-icon-logo-svg-vector">
                            <path d="M23.2097813,0.723617021 C24.5967422,-0.0818617021 26.4032578,-0.0855 27.7890234,0.723617021 C34.7606836,4.72048936 41.7345352,8.71109574 48.705,12.7103936 C50.0160586,13.4596809 50.8930195,14.9400638 50.8798222,16.4727979 L50.8798222,40.5195213 C50.8894336,42.1157234 49.9258125,43.6314787 48.5426367,44.3637872 C41.5938867,48.3386277 34.6487227,52.3183191 27.701168,56.2931596 C26.2855195,57.1144043 24.4427461,57.0511383 23.0713242,56.1625851 C20.9880938,54.9372872 18.9012773,53.7180532 16.8178477,52.4939681 C16.3921172,52.2364574 15.9121992,52.0315 15.6115781,51.6126915 C15.8773359,51.249266 16.3524727,51.2039894 16.7385586,51.0453191 C17.6081484,50.764766 18.4068164,50.3144255 19.2056836,49.8774255 C19.4076914,49.7371489 19.6543242,49.7909149 19.8479648,49.9164362 C21.6293789,50.9527447 23.3950547,52.0191702 25.1824453,53.0455745 C25.56375,53.2689255 25.9498359,52.9724043 26.2757578,52.7880638 C33.0946172,48.8779043 39.9218438,44.9825 46.7395078,41.0711277 C46.9921172,40.9478298 47.1317695,40.675766 47.11125,40.3950106 C47.1160313,32.4625106 47.1124453,24.5285957 47.1136406,16.5960957 C47.1425273,16.2775426 46.9608398,15.9846596 46.6769531,15.8542872 C39.7523086,11.8976383 32.83125,7.93492553 25.9078008,3.97726596 C25.6622702,3.80600178 25.3382235,3.80551993 25.0921992,3.97605319 C18.16875,7.93492553 11.2488867,11.9012766 4.3254375,15.8577234 C4.04254688,15.9882979 3.85269141,16.2763298 3.88635937,16.5960957 C3.88755469,24.5285957 3.88635937,32.4625106 3.88635937,40.3962234 C3.86177114,40.6767886 4.0120208,40.9432019 4.26288281,41.0638511 C6.1104375,42.1268404 7.96038281,43.1823511 9.80913281,44.2417021 C10.8506484,44.8104894 12.1294336,45.1484468 13.2769336,44.7126596 C14.2895625,44.3441809 14.9993789,43.2957447 14.9800547,42.2048617 C14.9896172,34.3186489 14.9752734,26.4312234 14.9872266,18.5462234 C14.9619258,18.1961383 15.2892422,17.9068936 15.6247266,17.9398404 C16.5124453,17.9337766 17.4013594,17.9277128 18.2890781,17.942266 C18.659625,17.9337766 18.914625,18.3107447 18.8688047,18.6634574 C18.8652188,26.5995957 18.8783672,34.5359362 18.8628281,42.4720745 C18.8652188,44.5871383 18.0087773,46.8885638 16.0805391,47.9234574 C13.7050547,49.172 10.7689687,48.9072128 8.42217187,47.7100106 C6.39053906,46.6811809 4.45174219,45.467 2.45616797,44.3647979 C1.06940625,43.6365319 0.110566406,42.1147128 0.120156657,40.5197234 L0.120156657,16.4727979 C0.105785156,14.9083298 1.01760937,13.4010638 2.36950781,12.6626915 C9.3170625,8.68461702 16.2634219,4.70351064 23.2097813,0.723617021 Z" id="Path" fill-rule="nonzero"></path>
                            <path d="M29.2708125,17.3809574 C32.3009297,17.1830745 35.5448086,17.2637234 38.2715156,18.778266 C40.3826367,19.938883 41.5530469,22.3747234 41.5903008,24.7543723 C41.531332,25.0753511 41.2006289,25.2524149 40.8986133,25.230383 C40.0194609,25.2291702 39.1401094,25.2425106 38.260957,25.2243191 C37.8880195,25.2388723 37.6712695,24.89 37.6244531,24.5554787 C37.3718438,23.4168936 36.7598438,22.2892234 35.7035859,21.7400426 C34.0821445,20.9163723 32.2021172,20.9578085 30.4340508,20.9749894 C29.1433125,21.0445213 27.7553555,21.1579149 26.6618438,21.9280213 C25.8223359,22.5113617 25.5673359,23.6889574 25.8669609,24.6373404 C26.1494531,25.3183085 26.9242148,25.5380213 27.5581289,25.7405532 C31.2098086,26.7095532 35.0794336,26.6131383 38.6613867,27.8883617 C40.1443711,28.408234 41.595082,29.4188723 42.1026914,30.9942553 C42.7666875,33.1056809 42.4756289,35.6294468 40.9950352,37.3244894 C39.7943438,38.7193723 38.0456016,39.4785638 36.3014414,39.8909043 C33.9811406,40.4158298 31.5731836,40.4291702 29.2168242,40.196117 C27.0011133,39.9398191 24.6953555,39.3492021 22.9848633,37.8174787 C21.5221992,36.5289149 20.8078008,34.5211809 20.8787227,32.583383 C20.8956563,32.2561383 21.2167969,32.0279362 21.5257852,32.0548191 C22.4111133,32.0475426 23.2964414,32.045117 24.1817695,32.0560319 C24.5353828,32.0303617 24.7975547,32.3404255 24.8156836,32.6785851 C24.979043,33.7634043 25.3808672,34.9019894 26.3132109,35.5451596 C28.1125547,36.7229574 30.3703008,36.6423085 32.4306211,36.6752553 C34.1375273,36.5984468 36.0536133,36.5752021 37.4465508,35.4305532 C38.1814688,34.7776809 38.3992148,33.685383 38.2005938,32.7456915 C37.9854375,31.9523404 37.1674453,31.5826489 36.465,31.3409043 C32.8601367,30.1839255 28.9472813,30.6037447 25.3772813,29.2953723 C23.9279648,28.7757021 22.5264609,27.7931596 21.9696445,26.2824574 C21.1926914,24.1443511 21.5486953,21.4997128 23.1844805,19.8618723 C24.7794258,18.2327234 27.0817969,17.6053191 29.2708125,17.3807553 L29.2708125,17.3809574 Z" id="Path" fill-rule="nonzero"></path>
                        </g>
                    </g>
                </g>
            </g>
        </g>
    </g>
</svg>