<?xml version="1.0" encoding="UTF-8"?>
<svg width="64px" height="57px" viewBox="0 0 64 57" version="1.1" xmlns="http://www.w3.org/2000/svg" xmlns:xlink="http://www.w3.org/1999/xlink">
    <!-- Generator: Sketch 58 (84663) - https://sketch.com -->
    <title>React</title>
    <desc>Created with Sketch.</desc>
    <g id="Page-1" stroke="none" stroke-width="1" fill="none" fill-rule="evenodd">
        <g id="Desktop" transform="translate(-500.000000, -974.000000)" fill="#61DAFB">
            <g id="Tools-I-use" transform="translate(500.000000, 751.000000)">
                <g id="Tools" transform="translate(0.000000, 223.000000)">
                    <g id="React">
                        <g id="React-icon">
                            <path d="M64,28.5065232 C64,24.2664225 58.690583,20.2481117 50.5503465,17.7562371 C52.4288626,9.4586862 51.5939666,2.85717556 47.9152059,0.743648432 C47.0672646,0.247882811 46.0758255,0.0130464637 44.9930697,0.0130464637 L44.9930697,2.92240787 C45.5931512,2.92240787 46.0758255,3.03982605 46.4802283,3.26161593 C48.2543824,4.2792401 49.0240522,8.15403983 48.4239706,13.137789 C48.2804729,14.3641566 48.0456584,15.6557565 47.7586629,16.9734493 C45.2017937,16.347219 42.4101101,15.8644999 39.4749287,15.5513848 C37.7138198,13.137789 35.8874847,10.9459831 34.0481044,9.0281529 C38.3008561,5.07507439 42.2927028,2.90936141 45.006115,2.90936141 L45.006115,0 C45.006115,0 45.006115,0 45.006115,0 C41.418671,0 36.7223808,2.55710689 31.9739095,6.99290455 C27.2254382,2.58319982 22.529148,0.0521858549 18.941704,0.0521858549 L18.941704,2.96154726 C21.6420709,2.96154726 25.6469629,5.11421378 29.8997146,9.04119936 C28.0733795,10.9590295 26.2470444,13.137789 24.5120261,15.5513848 C21.5637994,15.8644999 18.7721158,16.347219 16.2152466,16.9864958 C15.9152059,15.6818494 15.6934366,14.4163424 15.5368936,13.2030213 C14.9237668,8.21927214 15.6803914,4.34447242 17.4415002,3.31380179 C17.8328577,3.07896544 18.3416225,2.97459373 18.941704,2.97459373 L18.941704,0.0652323186 C18.941704,0.0652323186 18.941704,0.0652323186 18.941704,0.0652323186 C17.845903,0.0652323186 16.8544639,0.300068666 15.9934774,0.795834287 C12.3277619,2.90936141 11.5059111,9.49782559 13.3974725,17.7692836 C5.28332654,20.2742046 0,24.279469 0,28.5065232 C0,32.7466239 5.30941704,36.7649348 13.4496535,39.2568093 C11.5711374,47.5543603 12.4060334,54.1558709 16.0847941,56.269398 C16.9327354,56.7651637 17.9241745,57 19.0199755,57 C22.6074195,57 27.3037097,54.4428931 32.052181,50.0070954 C36.8006523,54.4168002 41.4969425,56.9478141 45.0843865,56.9478141 C46.1801875,56.9478141 47.1716266,56.7129778 48.0326131,56.2172122 C51.6983286,54.1036851 52.5201794,47.5152209 50.628618,39.2437629 C58.7166735,36.7518883 64,32.7335775 64,28.5065232 Z M47.0150836,19.8045319 C46.5324093,21.4875257 45.9323278,23.2227054 45.2539747,24.9578851 C44.7191194,23.914168 44.1581737,22.8704509 43.5450469,21.8267338 C42.9449653,20.7830167 42.3057481,19.7653925 41.6665308,18.7738613 C43.5189564,19.047837 45.3061557,19.3870451 47.0150836,19.8045319 Z M41.0403587,33.6990158 C40.0228292,35.4602884 38.9792091,37.1302358 37.8964533,38.6827649 C35.952711,38.852369 33.9828781,38.9436942 32,38.9436942 C30.0301671,38.9436942 28.0603343,38.852369 26.1296372,38.6958114 C25.0468814,37.1432822 23.9902161,35.4863813 22.9726865,33.7381552 C21.9812475,32.0290684 21.0811252,30.2938888 20.2592744,28.5456626 C21.0680799,26.7974365 21.9812475,25.0492103 22.9596413,23.3401236 C23.9771708,21.578851 25.0207909,19.9089036 26.1035467,18.3563745 C28.047289,18.1867704 30.0171219,18.0954452 32,18.0954452 C33.9698329,18.0954452 35.9396657,18.1867704 37.8703628,18.343328 C38.9531186,19.8958572 40.0097839,21.5527581 41.0273135,23.3009842 C42.0187525,25.010071 42.9188748,26.7452506 43.7407256,28.4934768 C42.9188748,30.2417029 42.0187525,31.989929 41.0403587,33.6990158 Z M45.2539747,32.0029755 C45.9584183,33.7512016 46.5584998,35.4994278 47.0542193,37.1954681 C45.3452915,37.6129549 43.5450469,37.9652094 41.679576,38.2391852 C42.3187933,37.2346075 42.9580106,36.2039368 43.5580921,35.1471733 C44.1581737,34.1034562 44.7191194,33.0466926 45.2539747,32.0029755 Z M32.0260905,45.9235523 C30.8128822,44.6710918 29.5996739,43.2751202 28.3995108,41.7486839 C29.5735834,41.8008698 30.7737464,41.8400092 31.9869547,41.8400092 C33.2132083,41.8400092 34.4264166,41.8139162 35.6135344,41.7486839 C34.4394619,43.2751202 33.2262536,44.6710918 32.0260905,45.9235523 Z M22.320424,38.2391852 C20.4679984,37.9652094 18.680799,37.6260014 16.9718712,37.2085145 C17.4545455,35.5255207 18.054627,33.790341 18.73298,32.0551614 C19.2678353,33.0988785 19.8287811,34.1425956 20.4419079,35.1863127 C21.0550347,36.2300298 21.6812067,37.2476539 22.320424,38.2391852 Z M31.9608642,11.0894942 C33.1740726,12.3419547 34.3872809,13.7379263 35.5874439,15.2643626 C34.4133714,15.2121767 33.2132083,15.1730373 32,15.1730373 C30.7737464,15.1730373 29.5605381,15.1991302 28.3734203,15.2643626 C29.5474929,13.7379263 30.7607012,12.3419547 31.9608642,11.0894942 Z M22.3073787,18.7738613 C21.6681614,19.778439 21.0289442,20.8091096 20.4288626,21.8658732 C19.8287811,22.9095903 19.2678353,23.9533074 18.73298,24.9970245 C18.0285365,23.2487984 17.428455,21.5005722 16.9327354,19.8045319 C18.6416633,19.4000916 20.4419079,19.047837 22.3073787,18.7738613 Z M10.5014268,35.1080339 C5.88340807,33.1380179 2.89604566,30.554818 2.89604566,28.5065232 C2.89604566,26.4582284 5.88340807,23.8619821 10.5014268,21.9050126 C11.6233184,21.4222934 12.849572,20.9917601 14.1149613,20.5873198 C14.8585406,23.1444266 15.8369344,25.8059052 17.0501427,28.5326162 C15.8499796,31.2462806 14.8846311,33.8947127 14.154097,36.4387732 C12.8626172,36.0343328 11.6363636,35.590753 10.5014268,35.1080339 Z M17.5197717,53.7514305 C15.7456176,52.7338064 14.9759478,48.8590066 15.5760294,43.8752575 C15.7195271,42.6488899 15.9543416,41.35729 16.2413371,40.0395972 C18.7982063,40.6658274 21.5898899,41.1485466 24.5250713,41.4616617 C26.2861802,43.8752575 28.1125153,46.0670634 29.9518956,47.9848936 C25.6991439,51.9379721 21.7072972,54.1036851 18.993885,54.1036851 C18.4068488,54.0906386 17.9111292,53.9732204 17.5197717,53.7514305 Z M48.4631064,43.8100252 C49.0762332,48.7937743 48.3196086,52.668574 46.5584998,53.6992447 C46.1671423,53.934081 45.6583775,54.0384527 45.058296,54.0384527 C42.3579291,54.0384527 38.3530371,51.8857862 34.1002854,47.9588006 C35.9266205,46.0409705 37.7529556,43.862211 39.4879739,41.4486152 C42.4362006,41.1355001 45.2278842,40.652781 47.7847534,40.0135042 C48.0847941,41.3311971 48.3196086,42.5967041 48.4631064,43.8100252 Z M53.4855279,35.1080339 C52.3636364,35.590753 51.1373828,36.0212863 49.8719935,36.4257267 C49.1284142,33.8686198 48.1500204,31.2071412 46.9368121,28.4804303 C48.1369751,25.7667659 49.1023237,23.1183337 49.8328577,20.5742733 C51.1243375,20.9787137 52.3505911,21.4222934 53.4985732,21.9050126 C58.1165919,23.8750286 61.1039543,26.4582284 61.1039543,28.5065232 C61.0909091,30.554818 58.1035467,33.1510643 53.4855279,35.1080339 Z" id="Shape" fill-rule="nonzero"></path>
                            <ellipse id="Oval" fill-rule="nonzero" cx="32" cy="28.5" rx="5.97802198" ry="5.98148148"></ellipse>
                        </g>
                    </g>
                </g>
            </g>
        </g>
    </g>
</svg>