<?xml version="1.0" encoding="UTF-8"?>
<svg width="61px" height="57px" viewBox="0 0 61 57" version="1.1" xmlns="http://www.w3.org/2000/svg" xmlns:xlink="http://www.w3.org/1999/xlink">
    <!-- Generator: Sketch 58 (84663) - https://sketch.com -->
    <title>Redux</title>
    <desc>Created with Sketch.</desc>
    <g id="Page-1" stroke="none" stroke-width="1" fill="none" fill-rule="evenodd">
        <g id="Desktop" transform="translate(-652.000000, -974.000000)" fill="#764ABC">
            <g id="Tools-I-use" transform="translate(500.000000, 751.000000)">
                <g id="Tools" transform="translate(0.000000, 223.000000)">
                    <g id="Redux" transform="translate(152.346241, 0.000000)">
                        <g id="redux-icon">
                            <path d="M41.4683544,39.824 C43.6708861,39.596 45.3417722,37.696 45.2658228,35.416 C45.1898734,33.136 43.2911392,31.312 41.0126582,31.312 L40.8607595,31.312 C38.5063291,31.388 36.6835443,33.364 36.7594937,35.72 C36.835443,36.86 37.2911392,37.848 37.9746835,38.532 C35.3924051,43.624 31.443038,47.348 25.5189873,50.464 C21.4936709,52.592 17.3164557,53.352 13.1392405,52.82 C9.72151899,52.364 7.06329114,50.844 5.39240506,48.336 C2.96202532,44.612 2.73417722,40.584 4.78481013,36.556 C6.2278481,33.668 8.50632911,31.54 9.94936709,30.476 C9.64556962,29.488 9.18987342,27.816 8.96202532,26.6 C-2.05063291,34.58 -0.911392405,45.372 2.43037975,50.464 C4.93670886,54.264 10.0253165,56.62 15.6455696,56.62 C17.164557,56.62 18.6835443,56.468 20.2025316,56.088 C29.9240506,54.188 37.2911392,48.412 41.4683544,39.824 L41.4683544,39.824 Z" id="Path" fill-rule="nonzero"></path>
                            <path d="M54.835443,30.4 C49.0632911,23.636 40.556962,19.912 30.835443,19.912 L29.6202532,19.912 C28.9367089,18.544 27.4936709,17.632 25.8987342,17.632 L25.7468354,17.632 C23.3924051,17.708 21.5696203,19.684 21.6455696,22.04 C21.721519,24.32 23.6202532,26.144 25.8987342,26.144 L26.0506329,26.144 C27.721519,26.068 29.164557,25.004 29.7721519,23.56 L31.1392405,23.56 C36.9113924,23.56 42.3797468,25.232 47.3164557,28.5 C51.1139241,31.008 53.8481013,34.276 55.3670886,38.228 C56.6582278,41.42 56.5822785,44.536 55.2151899,47.196 C53.0886076,51.224 49.5189873,53.428 44.8101266,53.428 C41.7721519,53.428 38.8860759,52.516 37.3670886,51.832 C36.5316456,52.592 35.0126582,53.808 33.9493671,54.568 C37.2151899,56.088 40.556962,56.924 43.7468354,56.924 C51.0379747,56.924 56.4303797,52.896 58.4810127,48.868 C60.6835443,44.46 60.5316456,36.86 54.835443,30.4 Z" id="Path" fill-rule="nonzero"></path>
                            <path d="M16.2531646,41.116 C16.3291139,43.396 18.2278481,45.22 20.5063291,45.22 L20.6582278,45.22 C23.0126582,45.144 24.835443,43.168 24.7594937,40.812 C24.6835443,38.532 22.7848101,36.708 20.5063291,36.708 L20.3544304,36.708 C20.2025316,36.708 19.9746835,36.708 19.8227848,36.784 C16.7088608,31.616 15.4177215,25.992 15.8734177,19.912 C16.1772152,15.352 17.6962025,11.4 20.3544304,8.132 C22.556962,5.32 26.8101266,3.952 29.6962025,3.876 C37.7468354,3.724 41.164557,13.756 41.3924051,17.784 C42.3797468,18.012 44.0506329,18.544 45.1898734,18.924 C44.278481,6.612 36.6835443,0.228 29.3924051,0.228 C22.556962,0.228 16.2531646,5.168 13.7468354,12.464 C10.2531646,22.192 12.5316456,31.54 16.7848101,38.912 C16.4050633,39.444 16.1772152,40.28 16.2531646,41.116 L16.2531646,41.116 Z" id="Path" fill-rule="nonzero"></path>
                        </g>
                    </g>
                </g>
            </g>
        </g>
    </g>
</svg>