<?xml version="1.0" encoding="UTF-8"?>
<svg width="113px" height="28px" viewBox="0 0 113 28" version="1.1" xmlns="http://www.w3.org/2000/svg" xmlns:xlink="http://www.w3.org/1999/xlink">
    <!-- Generator: Sketch 58 (84663) - https://sketch.com -->
    <title>Sabre</title>
    <desc>Created with Sketch.</desc>
    <g id="Page-1" stroke="none" stroke-width="1" fill="none" fill-rule="evenodd">
        <g id="Desktop" transform="translate(-815.000000, -2384.000000)" fill="#E50000">
            <g id="Brands" transform="translate(500.000000, 1828.000000)">
                <g id="Group-8" transform="translate(0.000000, 199.000000)">
                    <g id="Sabre" transform="translate(315.000000, 357.000000)">
                        <g id="Sabre_Corporation_logo">
                            <path d="M25.9854257,20.0554039 C25.7413975,20.7706779 25.6246232,21.5686603 25.6246232,22.4309714 C25.6246232,25.3380166 27.7579993,27.8544946 31.3121291,27.8544946 C34.5728262,27.8544946 36.4382203,26.4576425 37.2870795,25.5294711 L37.4008595,25.5294711 L37.2346807,27.301574 L45.4178625,27.301574 L47.4344644,17.6706466 C47.5167453,17.2540416 47.5826779,16.8558162 47.6245969,16.4759705 L25.9854257,20.0554039 L25.9854257,20.0554039 Z M36.0325046,14.4358313 C36.2675502,13.2871043 37.1238949,12.3773125 38.2092968,12.3773125 C39.3156582,12.3773125 39.7677842,13.3391799 39.5716633,14.3148321 L39.4309354,15.017853 L47.597649,14.1432888 C46.9793442,9.87615074 43.0808799,8.02287114 38.5521341,8.02287114 C31.8061741,8.02287114 28.5829048,11.4537358 27.9466347,14.4894386 L27.8582456,14.9182967 L35.938127,14.9182967 L36.0325046,14.4358313 L36.0325046,14.4358313 Z M38.2392389,20.7798678 C37.9802396,22.1828464 37.0490396,23.2886876 35.7390718,23.2886876 C34.5054564,23.2886876 33.9455387,22.2533016 34.1805844,21.1244859 C34.3796995,20.1748715 35.34683,19.2252572 37.1418602,19.2252572 L38.5626138,19.2252572 L38.2392389,20.7798678 L38.2392389,20.7798678 Z M60.0661471,14.4087275 C59.4987439,15.1867986 59.0406295,16.3094878 58.6783298,18.0034773 C57.9028289,21.6640874 58.7471967,22.6213599 59.8041536,22.6213599 C61.2159246,22.6213599 62.4106153,21.249014 62.9974808,18.0570845 C63.3732545,16.0230719 63.3163644,14.5603595 62.7774062,13.9599581 L71.5145173,12.5125621 C71.9426896,13.930857 72.0130536,15.7519723 71.6029064,17.8304024 C70.3228807,24.4057159 66.3899831,27.8549602 61.998971,27.8549602 C60.0108141,27.8549602 57.8400103,27.3250141 56.9372553,25.1592808 L56.7516142,25.1592808 L56.043483,27.300508 L48.1372659,27.300508 L50.4847282,15.9955024 L60.066207,14.4087275 L60.0661471,14.4087275 Z M60.5392925,10.1492476 C61.2264642,9.57794733 62.9211883,8.25001889 65.514176,8.25001889 C68.1475856,8.25001889 70.171673,9.42172045 71.1807225,11.6318712 L50.9428426,13.7868833 L53.6630844,0.692926684 L62.3792359,0.692926684 L60.4165299,10.1492476 L60.5392925,10.1492476 L60.5392925,10.1492476 Z M9.19214743,22.8414499 L9.95716863,19.0812834 L0.0642917708,19.0812834 C-0.621382809,25.4482944 4.26517135,28 10.5335545,28 C16.5489267,28 22.9101303,25.9460761 24.3263927,20.3310984 L9.19214743,22.8414499 L9.19214743,22.8414499 Z M8.8642812,16.4836287 C5.35656168,15.3486864 2.70967815,13.2350287 2.70967815,9.23133197 C2.70967815,3.37282416 8.42562912,0.0185412138 16.074344,0 C22.5538191,-0.024344595 26.843028,2.73872684 26.0869894,8.24955327 L16.8663131,8.24955327 C17.1911852,6.74395506 16.3453202,5.88930215 14.7673704,5.88930215 C13.5412406,5.88930215 12.5920753,6.53871583 12.4408676,7.29993894 C12.2267814,8.39046379 12.9094618,9.07816837 14.5622669,9.53612754 C15.9560726,9.92516309 16.9082321,10.1840096 18.2780842,10.5837666 C22.1780455,11.7263671 24.0434396,14.1080612 24.5255078,16.6015647 L12.9379068,17.8238102 L8.8642812,16.4836287 L8.8642812,16.4836287 Z M88.1614984,8.5764044 C86.23622,8.5764044 84.6942007,9.7113467 83.653712,11.1725275 L83.4950188,11.1725275 L83.7644978,8.80002326 L75.6816222,8.80002326 L75.1890743,11.2077551 L79.6504504,10.7314163 L79.5516414,11.1863122 L75.0243926,11.9383455 L71.8370538,27.300655 L80.5532053,27.300655 C80.5532053,27.300655 81.4529661,22.88648 82.0009069,20.3010783 C82.8797082,16.1763825 85.0909338,15.2436162 86.5640862,15.2436162 C87.8081813,15.2436162 88.5851794,15.8179797 88.7783061,15.9788015 L90.2050482,9.10175556 C90.0673144,9.02211049 89.3232527,8.5764044 88.1614984,8.5764044 L88.1614984,8.5764044 Z M102.737024,15.7665167 L102.82685,15.336127 C103.091838,13.9055789 102.421134,12.8227123 100.955467,12.8227123 C99.6050777,12.8227123 98.4538032,13.8136808 98.0480874,15.7665167 L102.737024,15.7665167 L102.737024,15.7665167 Z M109.212007,21.3646464 C107.863115,25.2825714 104.153286,27.8541882 98.0675498,27.8541882 C93.0013429,27.8541882 88.1177829,24.8399285 89.3229533,17.9353133 C90.3320027,12.1227545 95.5509145,8.25077858 101.519876,8.25077858 C108.204455,8.25077858 111.123812,12.9467748 110.039907,18.4208419 L109.779411,19.6752519 L97.223182,19.6752519 C97.18282,19.8192256 97.0240669,20.4165637 97.0240669,21.0721039 C97.0240669,22.7140177 97.8759202,23.2883812 98.959825,23.2883812 C100.07966,23.2883812 101.0423,22.6481574 101.572275,21.3646464 L109.212007,21.3646464 Z" id="path4032" fill-rule="nonzero"></path>
                            <path d="M110.969248,26.183526 L111.191415,26.183526 C111.446549,26.183526 111.662983,26.0896532 111.662983,25.849711 C111.662983,25.6791908 111.536849,25.5072254 111.191415,25.5072254 C111.091082,25.5072254 111.022281,25.5153179 110.969248,25.5245665 L110.969248,26.183526 Z M110.969248,27.2615607 L110.66108,27.2615607 L110.66108,25.3150289 C110.823048,25.2905202 110.974981,25.2687861 111.207182,25.2687861 C111.499583,25.2687861 111.69165,25.3294798 111.809184,25.416185 C111.92236,25.5 111.984051,25.632948 111.984051,25.8179191 C111.984051,26.0736994 111.814917,26.2297688 111.607083,26.2919075 L111.607083,26.3078613 C111.776217,26.3382659 111.892317,26.4928324 111.931017,26.7804046 C111.976884,27.0838728 112.024241,27.1994798 112.054284,27.2616185 L111.73035,27.2616185 C111.683107,27.1995376 111.637126,27.020289 111.599916,26.7645087 C111.554049,26.5159538 111.429349,26.4234682 111.184249,26.4234682 L110.969248,26.4234682 L110.969248,27.2616185 L110.969248,27.2615607 Z M111.291749,24.7716763 C110.529213,24.7716763 109.907145,25.4306358 109.907145,26.2442197 C109.907145,27.0751445 110.529213,27.7283237 111.298915,27.7283237 C112.068618,27.7352601 112.683519,27.0751445 112.683519,26.2528902 C112.683519,25.4306358 112.068618,24.7716763 111.298915,24.7716763 L111.292035,24.7716763 L111.291749,24.7716763 Z M111.298629,24.5 C112.246065,24.5 113,25.2760116 113,26.2442197 C113,27.2297688 112.246065,28 111.291462,28 C110.34546,28 109.575758,27.2297688 109.575758,26.2442197 C109.575758,25.2760116 110.34546,24.5 111.291462,24.5 L111.298342,24.5 L111.298629,24.5 Z" id="path4036" fill-rule="nonzero"></path>
                        </g>
                    </g>
                </g>
            </g>
        </g>
    </g>
</svg>