<?xml version="1.0" encoding="UTF-8"?>
<svg width="64px" height="47px" viewBox="0 0 64 47" version="1.1" xmlns="http://www.w3.org/2000/svg" xmlns:xlink="http://www.w3.org/1999/xlink">
    <!-- Generator: Sketch 58 (84663) - https://sketch.com -->
    <title>Sass</title>
    <desc>Created with Sketch.</desc>
    <g id="Page-1" stroke="none" stroke-width="1" fill="none" fill-rule="evenodd">
        <g id="Desktop" transform="translate(-729.000000, -979.000000)" fill="#CD6799">
            <g id="Tools-I-use" transform="translate(500.000000, 751.000000)">
                <g id="Tools" transform="translate(0.000000, 223.000000)">
                    <g id="Sass" transform="translate(229.521640, 5.000000)">
                        <g id="Sass_Logo_Color">
                            <path d="M54.2479341,27.0184637 C52.0500599,27.0299109 50.1398655,27.5564832 48.5403654,28.3348943 C47.9534985,27.1787248 47.3666315,26.1484748 47.2630668,25.3929582 C47.1479948,24.5115221 47.0099085,23.9735026 47.1479948,22.9203582 C47.2860812,21.8672137 47.9074697,20.3676276 47.8959625,20.2531554 C47.8844553,20.1386832 47.7578762,19.6006637 46.4920847,19.5892165 C45.2262933,19.5777693 44.1331098,19.8296082 44.0065306,20.1615776 C43.8799515,20.4935471 43.6383004,21.2490637 43.4771996,22.0274748 C43.2585629,23.1721971 40.9456168,27.2588554 39.6222893,29.3994859 C39.1965231,28.5638387 38.8282929,27.8312165 38.7477425,27.2474082 C38.6326706,26.3659721 38.4945842,25.8279526 38.6326706,24.7748082 C38.7707569,23.7216637 39.3921454,22.2220776 39.3806382,22.1076054 C39.369131,21.9931332 39.2425519,21.4551137 37.9767605,21.4436665 C36.710969,21.4322193 35.6177855,21.6840582 35.4912063,22.0160276 C35.3646272,22.3479971 35.2265409,23.1264082 34.9618754,23.8819248 C34.6972099,24.6374415 31.6247888,31.4599859 30.8192852,33.2228582 C30.4050262,34.1271887 30.0483031,34.8483637 29.7951448,35.3405943 C29.7951448,35.3405943 29.7951448,35.3405943 29.7951448,35.3405943 C29.7951448,35.3405943 29.7836376,35.3749359 29.7491161,35.432172 C29.5304794,35.8557193 29.4039002,36.0846637 29.4039002,36.0846637 C29.4039002,36.0846637 29.4039002,36.0846637 29.4039002,36.0961109 C29.2312923,36.4051859 29.0471772,36.6913665 28.9551196,36.6913665 C28.8860764,36.6913665 28.7594973,35.8671665 28.978134,34.7453387 C29.4384218,32.3757637 30.5316053,28.6897582 30.5200981,28.5638387 C30.5200981,28.4951554 30.7272276,27.8541109 29.806652,27.5221415 C28.9090908,27.1901721 28.5868894,27.7396387 28.506339,27.7396387 C28.4257886,27.7396387 28.3682527,27.9342415 28.3682527,27.9342415 C28.3682527,27.9342415 29.3693786,23.7903471 26.4580583,23.7903471 C24.6399215,23.7903471 22.131353,25.7707165 20.8885759,27.5564832 C20.1060867,27.9800304 18.4375434,28.8843609 16.6539282,29.8573748 C15.9750037,30.2351332 15.2730648,30.6128915 14.6171547,30.9677554 C14.5711259,30.9219665 14.5250971,30.8647304 14.4790684,30.8189415 C10.9578667,27.0756998 4.44479436,24.4313915 4.72096704,19.406061 C4.82453179,17.5745054 5.45742751,12.7666721 17.229288,6.92858876 C26.9183461,2.17799155 34.6281667,3.4944221 35.9630013,6.41346376 C37.8731957,10.5802526 31.8319183,18.3185749 21.8206587,19.4404026 C18.00027,19.8639499 15.9980181,18.3987054 15.4917015,17.8492387 C14.9623705,17.2768776 14.8818202,17.242536 14.6861979,17.3570082 C14.3639964,17.5287165 14.5711259,18.0438415 14.6861979,18.3414693 C14.9853849,19.1198804 16.2166548,20.4935471 18.2994571,21.1689332 C20.1406083,21.7641887 24.6169071,22.0961582 30.0367959,20.0127637 C36.1010877,17.6775304 40.842052,11.1869554 39.4496814,5.74952488 C38.0573108,0.231963774 28.8515549,-1.58814456 20.1406083,1.49115822 C14.9623705,3.32271377 9.34685941,6.20741376 5.30783398,9.96210265 C0.509333681,14.4265193 -0.250141186,18.3071276 0.0605530782,19.9326332 C1.17675099,25.7020332 9.17425148,29.4567221 12.3732517,32.2383971 C12.212151,32.3299748 12.0625574,32.4101054 11.9359783,32.4787887 C10.3364782,33.268647 4.23766485,36.4395276 2.71871511,39.7935637 C0.99263587,43.5940415 2.99488779,46.3184804 4.31821521,46.6847915 C8.42628381,47.8180665 12.6494244,45.7804609 14.9163418,42.4149776 C17.1832592,39.0494943 16.9070865,34.6766554 15.8599318,32.6733915 C15.8484246,32.6504971 15.8369174,32.6276026 15.813903,32.6047082 C16.228162,32.3643165 16.6539282,32.1124776 17.0681872,31.8720859 C17.8851981,31.3913026 18.6907017,30.9448609 19.3811334,30.5785498 C18.9898888,31.6431415 18.7022089,32.9137832 18.5641226,34.7453387 C18.3915146,36.8974165 19.2775687,39.6905387 20.4397953,40.789472 C20.9576191,41.2702554 21.5675004,41.2817026 21.9587451,41.2817026 C23.3165941,41.2817026 23.9264754,40.1598748 24.6053999,38.831997 C25.433918,37.2064915 26.1818856,35.3176998 26.1818856,35.3176998 C26.1818856,35.3176998 25.2498028,40.4231609 27.7813857,40.4231609 C28.7019613,40.4231609 29.6340441,39.2326498 30.0483031,38.625947 C30.0483031,38.6373943 30.0483031,38.6373943 30.0483031,38.6373943 C30.0483031,38.6373943 30.0713175,38.6030526 30.1173463,38.522922 C30.2094039,38.3741082 30.2669398,38.2825304 30.2669398,38.2825304 C30.2669398,38.2825304 30.2669398,38.2710832 30.2669398,38.2596359 C30.6351701,37.6185915 31.4636881,36.1647943 32.694958,33.7494304 C34.2829509,30.6357859 35.8134078,26.7437304 35.8134078,26.7437304 C35.8134078,26.7437304 35.9514941,27.6938498 36.4232891,29.2735665 C36.6994618,30.2007915 37.2748216,31.2195943 37.7351094,32.2040554 C37.3668791,32.7191804 37.1367352,33.0053609 37.1367352,33.0053609 C37.1367352,33.0053609 37.1367352,33.0053609 37.1482424,33.0168082 C36.8490553,33.4060137 36.5268539,33.8295609 36.1701308,34.2416609 C34.9158466,35.7297998 33.4199113,37.4354359 33.2127817,37.9276665 C32.9711306,38.5114748 33.0286666,38.935022 33.4889544,39.2784387 C33.8226631,39.5302776 34.4210372,39.5646193 35.0309185,39.5302776 C36.1586237,39.450147 36.9526201,39.1754137 37.3438647,39.0037054 C37.9537461,38.7862082 38.6671922,38.4542387 39.3346095,37.9620082 C40.5658793,37.0576776 41.313847,35.7641415 41.2448038,34.0585054 C41.2102822,33.1198332 40.899588,32.1811609 40.5198505,31.2997248 C40.6349225,31.1394637 40.7384872,30.9792026 40.8535592,30.8189415 C42.7982751,27.9914776 44.3057177,24.8892804 44.3057177,24.8892804 C44.3057177,24.8892804 44.443804,25.8393998 44.915599,27.4191165 C45.1457429,28.2204221 45.6175379,29.0904109 46.0317969,29.9375054 C44.2021529,31.4141971 43.0744478,33.1312804 42.671696,34.2531082 C41.9467427,36.3365026 42.5105953,37.2751748 43.5807644,37.492672 C44.0640666,37.595697 44.7544983,37.3667526 45.2608149,37.1492554 C45.9052178,36.9432054 46.6646926,36.5883415 47.3896459,36.0617693 C48.6209158,35.1574387 49.8061569,33.8982443 49.7371137,32.1926082 C49.7025921,31.4141971 49.4954626,30.6472332 49.2077827,29.9031637 C50.7612541,29.2621193 52.763506,28.9072554 55.3181033,29.2048832 C60.7955281,29.8459276 61.8772044,33.2457526 61.6700749,34.6766554 C61.4629454,36.1075582 60.3122259,36.8859693 59.9324884,37.1263609 C59.552751,37.3667526 59.4261719,37.4468832 59.4606934,37.6185915 C59.5067222,37.8704304 59.6908373,37.8589832 60.0130388,37.8131943 C60.4618194,37.7330637 62.8898375,36.6570248 62.9934023,34.0241637 C63.1660102,30.6586804 59.9439956,26.9841221 54.2479341,27.0184637 Z M11.9935142,41.1901248 C10.1753774,43.159047 7.64379455,43.9031165 6.55061103,43.2735193 C5.37687715,42.5981331 5.83716495,39.6905387 8.06956077,37.6071443 C9.42740977,36.3365026 11.1765034,35.1574387 12.3387301,34.4362637 C12.6033956,34.2760026 12.9946402,34.0470582 13.4664352,33.7608776 C13.5469856,33.7150887 13.5930143,33.6921943 13.5930143,33.6921943 L13.5930143,33.6921943 C13.6850719,33.6349582 13.7771295,33.577722 13.869187,33.5204859 C14.6861979,36.4967637 13.9037086,39.1181776 11.9935142,41.1901248 Z M25.2267884,32.2383971 C24.5938927,33.7723248 23.2705653,37.698722 22.4650617,37.4812248 C21.77463,37.2980693 21.3488637,34.3217915 22.3269753,31.3798554 C22.8217847,29.9031637 23.8689394,28.1402915 24.4788208,27.4534582 C25.4684395,26.3545248 26.5616231,25.9882137 26.8262885,26.4346554 C27.1599972,27.0184637 25.6180331,31.2768304 25.2267884,32.2383971 Z M36.1471165,37.4354359 C35.882451,37.5728026 35.6292927,37.6643804 35.5142207,37.595697 C35.4336704,37.5499082 35.6292927,37.3667526 35.6292927,37.3667526 C35.6292927,37.3667526 36.9986489,35.9015082 37.539487,35.2375693 C37.8501813,34.8483637 38.2184115,34.3904748 38.6096562,33.8753498 C38.6096562,33.9211387 38.6096562,33.9783748 38.6096562,34.0241637 C38.6096562,35.7755887 36.9065913,36.9546526 36.1471165,37.4354359 Z M44.5703832,35.5237498 C44.3747609,35.3863832 44.4092824,34.9284943 45.0651925,33.4975915 C45.3183508,32.9366776 45.916725,31.9980054 46.9408653,31.0936748 C47.0559373,31.4599859 47.1364876,31.8148498 47.1249804,32.1468193 C47.1134732,34.3561332 45.5254803,35.1803332 44.5703832,35.5237498 Z" id="Shape" fill-rule="nonzero"></path>
                        </g>
                    </g>
                </g>
            </g>
        </g>
    </g>
</svg>