<?xml version="1.0" encoding="UTF-8"?>
<svg width="113px" height="47px" viewBox="0 0 113 47" version="1.1" xmlns="http://www.w3.org/2000/svg" xmlns:xlink="http://www.w3.org/1999/xlink">
    <!-- Generator: Sketch 58 (84663) - https://sketch.com -->
    <title>Sprint</title>
    <desc>Created with Sketch.</desc>
    <g id="Page-1" stroke="none" stroke-width="1" fill="none" fill-rule="evenodd">
        <g id="Desktop" transform="translate(-664.000000, -2224.000000)">
            <g id="Brands" transform="translate(500.000000, 1828.000000)">
                <g id="Group-8" transform="translate(0.000000, 199.000000)">
                    <g id="Sprint" transform="translate(164.000000, 197.000000)">
                        <g id="sprint-vector-logo">
                            <path d="M4.6842572,37.3015873 C3.1642564,37.3015873 1.67474059,37.1161307 0.463833699,36.8013579 L0.651759658,33.5967151 C1.82986633,34.031512 3.47373611,34.3753229 4.99450868,34.3753229 C7.29129575,34.3753229 9.15241875,33.4104842 9.15241875,31.1389317 C9.15241875,26.7166252 0,28.5866778 0,21.7971868 C0,18.1867851 2.82313413,15.6666667 7.69531727,15.6666667 C8.93555142,15.6666667 10.2074281,15.8207621 11.4800766,16.037967 L11.2929224,19.058702 C10.0843308,18.685853 8.74955489,18.4674866 7.50893485,18.4674866 C4.90266807,18.4674866 3.56866381,19.6805041 3.56866381,21.4243378 C3.56866381,25.6275035 12.7218543,24.0722238 12.7218543,30.6383152 C12.7199249,34.499993 9.68030933,37.3015873 4.6842572,37.3015873" id="path3" fill="#000000" fill-rule="nonzero"></path>
                            <path d="M20.5257095,37.5145453 C19.6712367,37.5145453 19.0295273,37.4853414 18.2347043,37.3304838 L18.2347043,44.015873 L14.9668874,44.015873 L14.9668874,21.94502 L18.0519558,21.94502 C18.0519558,22.7496645 18.0208011,23.9850667 17.8680675,24.8177623 L17.9296168,24.8177623 C18.7844695,22.8703228 20.5257095,21.6349206 22.8474894,21.6349206 C26.4519282,21.6349206 28.4370861,24.2286887 28.4370861,28.8644248 C28.437466,34.2732958 25.5978354,37.5145453 20.5257095,37.5145453 L20.5257095,37.5145453 Z M21.9926367,24.3551109 C19.5485179,24.3551109 18.2347043,27.2589784 18.2347043,29.8823346 L18.2347043,34.6129834 C18.9379631,34.8293228 19.7012515,34.92193 20.6176536,34.92193 C23.2137462,34.92193 24.9857609,33.3149465 24.9857609,29.1741399 C24.9857609,26.0854424 24.039344,24.3551109 21.9926367,24.3551109 L21.9926367,24.3551109 Z" id="path5" fill="#000000" fill-rule="nonzero"></path>
                            <path d="M39.5022001,24.9007971 C36.3572856,24.3464196 34.8318558,26.4753057 34.8318558,31.0718428 L34.8318558,37.3015873 L31.4304636,37.3015873 L31.4304636,21.9716125 L34.673385,21.9716125 C34.673385,22.8332953 34.5761685,24.1933424 34.3540722,25.3646326 L34.4180929,25.3646326 C35.1179727,23.2975145 36.7062375,21.3834736 39.6622517,21.6620051 L39.5022001,24.9007971" id="path7" fill="#000000" fill-rule="nonzero"></path>
                            <path d="M44.1692315,19.7799886 C42.9237344,19.7799886 41.9072848,18.8586228 41.9072848,17.7219918 C41.9072848,16.5880325 42.9237344,15.6666667 44.1692315,15.6666667 C45.381309,15.6666667 46.397351,16.5571167 46.397351,17.7219918 C46.397351,18.8586228 45.381309,19.7799886 44.1692315,19.7799886 L44.1692315,19.7799886 Z M45.9054285,37.3015873 L42.4004299,37.3015873 L42.4004299,22.0505789 L45.9054285,22.0505789 L45.9054285,37.3015873 L45.9054285,37.3015873 Z" id="path9" fill="#000000" fill-rule="nonzero"></path>
                            <path d="M58.8797628,37.3015873 L58.8797628,27.4137478 C58.8797628,25.4987451 58.3584748,24.3873287 56.6216071,24.3873287 C54.3338586,24.3873287 52.6542794,26.8257578 52.6542794,29.88369 L52.6542794,37.3015873 L49.3907285,37.3015873 L49.3907285,21.9454408 L52.5029011,21.9454408 C52.5029011,22.7501801 52.4414392,24.0768085 52.2889226,24.9414996 L52.3204123,24.9703227 C53.2044014,22.9949838 55.0357383,21.6349206 57.597789,21.6349206 C61.044208,21.6349206 62.1125828,23.829699 62.1125828,26.5490566 L62.1125828,37.3015873 L58.8797628,37.3015873" id="path11" fill="#000000" fill-rule="nonzero"></path>
                            <path d="M71.7110176,37.3015873 C68.3650294,37.3015873 67.3542458,36.0225495 67.3542458,32.5589741 L67.3542458,24.0965121 L64.3576159,24.0965121 L64.3576159,21.5062081 L67.3542458,21.5062081 L67.3542458,16.5725547 L70.6998414,15.6666667 L70.6998414,21.5062081 L74.8340445,21.5062081 L74.8340445,24.0965121 L70.7328146,24.0965121 L70.7328146,31.5272791 C70.7328146,33.8391768 71.2058221,34.4619991 72.7834296,34.4619991 C73.4774356,34.4619991 74.2354251,34.3684205 74.8344371,34.2123266 L74.8344371,36.9598893 C73.9194326,37.1489881 72.751634,37.3015873 71.7110176,37.3015873" id="path13" fill="#000000" fill-rule="nonzero"></path>
                            <path d="M89.0529801,32.8253968 C93.6604856,27.0451834 97.2847682,20.2546012 97.2847682,15.3778575 C97.2847682,12.8291381 95.4114949,11.0501688 92.9689666,9.6984127 C93.0169287,14.9977718 91.133434,27.4241196 89.0529801,32.8253968" id="path15" fill="#FFDD05" fill-rule="nonzero"></path>
                            <path d="M74.8344371,47 C85.4112112,43.4920245 100.744049,35.3189646 111.407843,28.0170768 C112.302685,27.4066455 113,26.8393529 113,25.8471635 C113,24.1219985 109.813376,21.8096895 108.267039,20.8888889 C99.8761597,29.5368559 83.1764157,42.4948723 74.8344371,47" id="path17" fill="#FFDD05" fill-rule="nonzero"></path>
                            <path d="M84.5629139,39.5396825 C90.9852025,35.0342133 100.315304,26.5569741 103.472986,21.9445341 C104.217286,20.8594352 104.768212,20.2306935 104.768212,19.0951875 C104.768212,17.2332039 102.628587,15.8699041 101.089179,14.9206349 C97.4014245,23.7414887 89.1155423,34.7252294 84.5629139,39.5396825" id="path19" fill="#FFDD05" fill-rule="nonzero"></path>
                            <path d="M90.8528499,27.6031746 C91.7343387,21.9905862 91.2161472,15.2148474 90.0908508,10.9650835 C89.4793205,8.6508019 87.3144225,6.03875381 85.3112583,5.22222222 C87.9368156,12.4035128 90.1906269,22.6299312 90.8528499,27.6031746" id="path21" fill="#FFDD05" fill-rule="nonzero"></path>
                            <path d="M89.0529801,19.3968254 C87.066603,14.0102208 82.1165296,2.78184924 74.8344371,0 C79.5747255,5.24951224 86.6075533,15.6658153 89.0529801,19.3968254" id="path23" fill="#FFDD05" fill-rule="nonzero"></path>
                        </g>
                    </g>
                </g>
            </g>
        </g>
    </g>
</svg>