<svg width="380" height="330" viewBox="0 0 380 330" fill="none" xmlns="http://www.w3.org/2000/svg">
<path d="M243.4 0.300003C222.1 0.300003 203.9 7.8 190 15.2C176.1 7.7 159 0.300003 136.6 0.300003C92.8 0.300003 65 28.1 65 77.3C65 136 121.6 193.7 190 240.7C258.4 194.8 315 137.2 315 77.3C315 28.1 286.1 0.300003 243.4 0.300003Z" fill="#CCCCCC"/>
<path d="M71.5 78.2C71.5 138 135.6 194.6 189 232C205.1 221.3 221 208.5 236 195.7C164.4 135.9 96.1 81.4 72.6 62.3C72.5 66.4 71.5 71.8 71.5 78.2Z" fill="url(#paint0_linear_0_4)"/>
<path d="M303.2 106C250.9 63.2 219.8 40.8 185.7 20.6C176.1 15.2 157.9 6.7 137.7 6.7C118.4 6.7 101.4 13.1 89.7 24.8C82.2 32.3 76.8 41.8 74.8 53.7C101.4 73 175.1 125.3 248.8 184C273.3 160.4 293.6 133.7 303.2 106Z" fill="url(#paint1_linear_0_4)"/>
<path d="M289.3 24.8C277.6 13.1 261.5 6.7 242.3 6.7C222 6.7 207.1 13.1 195.3 19.6C215.6 31.3 259.4 55.9 305.3 90.1C306.4 85.8 306.4 80.5 306.4 76.2C307.5 54.7 301.1 36.6 289.3 24.8Z" fill="url(#paint2_linear_0_4)"/>
<path d="M116.8 317.3C115 317.7 112.8 317.9 110.6 317.9C104.2 317.9 102.8 315.7 102.8 311.5V287.4H90.8V313C90.8 324.4 97.2 329.5 109.9 329.5C116.1 329.5 121.9 328.3 128.8 326.7V287.5H116.6L116.8 317.3ZM155.6 318.6C151.2 318.6 150.7 316.6 150.7 313.2V297.6H160.7V287.4H150.7V275.4H138.7V287.4H132.7V297.4H138.7V313.7C138.7 320.9 140.1 329.3 152.1 329.3C155.7 329.3 158.7 328.5 162.1 327.5L160.9 317.5C159 318.1 157.4 318.6 155.6 318.6ZM29.9 296.1C27.7 295.3 25.1 294.5 22.5 293.7C15.6 291.7 13.4 290.8 13.4 287.5C13.4 283.9 16 282.1 22.3 282.1C27.5 282.1 32.1 283.5 36.6 285L39.2 273.4C33.8 271.4 28.8 269.6 22.7 269.6C8.4 269.6 0.400002 277.8 0.400002 287.6C0.400002 295 3.6 299.8 10.8 302.7C12.8 303.5 15.4 304.3 18 305.1C25.8 307.5 28.2 308.7 28.2 311.7C28.2 315.3 25.3 317.3 19.1 317.3C13.5 317.3 8.4 315.7 2.9 313.3L0 325.3C6 327.7 11.8 329.3 18.9 329.3C33.6 329.3 41.2 321.1 41.2 311.2C41.2 303.2 36.7 298.6 29.9 296.1ZM186.9 285.4C182.9 285.4 179.1 286.3 176.5 287.2V267.4H164.5V329.2H176.5V298.3C178.7 297.5 181.1 296.7 184.1 296.7C188.7 296.7 190.5 298.5 190.5 302.9V329.2H202.5V301.6C202.4 290.7 197.5 285.4 186.9 285.4ZM65.7 285.2C53.5 285.2 43.8 293.8 43.8 307.1C43.8 320.5 53.6 329.4 65.7 329.4C77.9 329.4 87.6 320.7 87.6 307.1C87.6 293.5 77.9 285.2 65.7 285.2ZM65.7 317.5C60.5 317.5 56.3 313.7 56.3 307C56.3 300.3 60.3 296.6 65.7 296.6C71.1 296.6 75.1 300.2 75.1 307C75.1 313.9 71 317.5 65.7 317.5ZM334.2 303.8C332.4 303.2 330.6 302.6 328.4 302C324.2 300.8 322.6 300.2 322.6 298.4C322.6 296.6 324.2 295.5 328 295.5C332 295.5 335.6 296.3 339.6 297.5L341.6 287.1C337.2 286.2 333.1 285.3 328.2 285.3C316.8 285.3 310.6 291.1 310.6 299.1C310.6 304.7 313.4 308.2 319 310.7C320.6 311.3 322.4 312.1 324.6 312.7C329 313.9 331.2 314.5 331.2 316.5C331.2 318.5 328.6 319.3 325 319.3C320.6 319.3 316.6 318.5 312.5 316.9L310.7 327.3C315.9 328.7 320.7 329.7 326.1 329.7C338.1 329.7 343.4 323.5 343.4 315.7C343.1 310.2 341 306.2 334.2 303.8ZM289.4 285.2C276.9 285.2 267.8 293.9 267.8 307.9C267.8 320.8 275.6 329.5 289.6 329.5C295.8 329.5 300.7 327.7 305.9 325.5L304.1 315.5C300.1 317.3 296.1 318.7 291.4 318.7C284.2 318.7 281.2 315.8 280.9 311.3H307.8C307.8 311.3 308.2 306.5 308.2 305.5C308.1 294.3 301.9 285.2 289.4 285.2ZM281 303.4C281.8 299.8 283.6 295.2 288.8 295.2C294 295.2 295.5 300.4 295.5 303.4H281ZM366.9 318.6C362.5 318.6 362 316.6 362 313.2V297.6H372V287.4H362V275.4H350V287.4H343.8V297.6H350V313.9C350 321.1 351.8 329.5 363.8 329.5C367.4 329.5 370.4 328.7 373.8 327.7L372.4 317.7C370.2 318.1 368.6 318.6 366.9 318.6ZM374.8 269.9C371.9 269.9 369.6 272.3 369.4 275.3C369.2 278.3 371.8 280.7 374.6 280.7C377.5 280.7 380 278.3 380 275.3C380 272.3 377.8 269.9 374.8 269.9ZM374.8 279.7C372.4 279.7 370.6 277.9 370.6 275.3C370.6 272.7 372.4 270.9 375 270.9C377.4 270.9 379.4 272.7 379.2 275.3C379 277.9 377.2 279.7 374.8 279.7ZM375.4 275.5C376.4 275.3 377 274.9 377 273.9C377 272.9 376.2 272.1 375 272.1H373V278.3H374.2V275.7C374.6 275.7 374.8 275.9 375 276.3L376.4 278.3H377.8L376.6 276.3C375.8 275.9 375.6 275.7 375.4 275.5ZM374.6 274.9H374V273.1H374.8C375.6 273.1 375.8 273.5 375.8 273.9C375.8 274.7 375.3 274.9 374.6 274.9ZM256.7 287.4L249.1 310.3L241.5 287.4H231.1L223.3 310.3L215.7 287.4H202.8L217.7 329.2H228.6L236.2 306.5L243.8 329.2H254.7L269.6 287.4H256.7Z" fill="#304CB2"/>
<defs>
<linearGradient id="paint0_linear_0_4" x1="71.9168" y1="147.117" x2="237.005" y2="147.117" gradientUnits="userSpaceOnUse">
<stop stop-color="#3656CC"/>
<stop offset="0.35" stop-color="#304CB2"/>
<stop offset="0.72" stop-color="#283B80"/>
</linearGradient>
<linearGradient id="paint1_linear_0_4" x1="95.4299" y1="15.8683" x2="282.123" y2="146.593" gradientUnits="userSpaceOnUse">
<stop offset="0.3" stop-color="#E61C23"/>
<stop offset="0.8" stop-color="#C3161C"/>
</linearGradient>
<linearGradient id="paint2_linear_0_4" x1="210.7" y1="-0.517405" x2="317.331" y2="74.146" gradientUnits="userSpaceOnUse">
<stop stop-color="#FDBC11"/>
<stop offset="0.25" stop-color="#FCB415"/>
<stop offset="0.8" stop-color="#F89E1C"/>
</linearGradient>
</defs>
</svg>
