<?xml version="1.0" encoding="UTF-8"?>
<svg width="58px" height="74px" viewBox="0 0 58 74" version="1.1" xmlns="http://www.w3.org/2000/svg" xmlns:xlink="http://www.w3.org/1999/xlink">
    <!-- Generator: Sketch 61.2 (89653) - https://sketch.com -->
    <title>target</title>
    <desc>Created with Sketch.</desc>
    <g id="Page-1" stroke="none" stroke-width="1" fill="none" fill-rule="evenodd">
        <g id="target" fill="#CC0000" fill-rule="nonzero">
            <path d="M29.4130322,48.0520979 C18.892852,48.0520979 10.355349,39.4509675 10.355349,28.8337026 C10.355349,18.1972151 18.892852,9.60234313 29.4130322,9.60234313 C39.9423682,9.60234313 48.4692386,18.1972151 48.4692386,28.8337026 C48.4692386,39.4509675 39.9423682,48.0520979 29.4130322,48.0520979 L29.4130322,48.0520979 Z M29.4130322,0 C13.6419916,0 0.852941176,12.9081777 0.852941176,28.8337026 C0.852941176,44.7470084 13.6419916,57.6511628 29.4130322,57.6511628 C45.1908658,57.6511628 58,44.7470084 58,28.8337026 C58,12.9081777 45.1908658,0 29.4130322,0 Z" id="Shape"></path>
            <path d="M29.4191492,18.9302326 C24.0047171,18.9302326 19.6176471,23.3470566 19.6176471,28.8280444 C19.6176471,34.2909702 24.0045692,38.7209302 29.4191492,38.7209302 C34.8387581,38.7209302 39.2352941,34.2908209 39.2352941,28.8280444 C39.2352941,23.3472059 34.8387581,18.9302326 29.4191492,18.9302326" id="Path"></path>
            <polyline id="Path" points="3.12002062 64.7235623 0 64.7235623 0 62.8139535 8.52941176 62.8139535 8.52941176 64.7235623 5.40939115 64.7235623 5.40939115 73.1395349 3.12002062 73.1395349 3.12002062 64.7235623"></polyline>
            <path d="M7.67647059,73.1395349 L10.0037154,73.1395349 L10.8244133,70.8395617 L14.7342963,70.8395617 L15.5253215,73.1395349 L17.9117647,73.1395349 L14.0018818,62.8139535 L11.6448174,62.8139535 L7.67647059,73.1395349 L7.67647059,73.1395349 Z M12.7867729,65.3582127 L12.8155642,65.3582127 L14.1329114,69.1476924 L11.4257982,69.1476924 L12.7867729,65.3582127 Z" id="Shape"></path>
            <path d="M19.6176471,73.1393898 L21.7963313,73.1393898 L21.7963313,69.1047288 L23.9725111,69.1047288 C25.0692969,69.1047288 25.4706957,69.5815708 25.6229072,70.665672 C25.7351876,71.4902446 25.7069436,72.4883198 25.9707398,73.1395349 L28.1470588,73.1395349 C27.7591559,72.5612896 27.7734866,71.3448854 27.7313293,70.6943957 C27.6616237,69.6516392 27.3577571,68.5682633 26.2889371,68.2792857 L26.2889371,68.2507071 C27.3860011,67.7882269 27.8571056,66.8782086 27.8571056,65.6618045 C27.8571056,64.1011514 26.7327715,62.8139535 24.9579905,62.8139535 L19.6177862,62.8139535 L19.6176471,73.1393898 L19.6176471,73.1393898 Z M21.7963313,64.5777033 L24.1823238,64.5777033 C25.1516636,64.5777033 25.679117,65.0117499 25.679117,66.0085195 C25.679117,67.0492451 25.1516636,67.483872 24.1823238,67.483872 L21.7963313,67.483872 L21.7963313,64.5777033 Z" id="Shape"></path>
            <path d="M36.8378198,72.0561172 C36.0489203,73.101601 35.0189523,73.5 34.0296654,73.5 C30.8634301,73.5 29,71.0699287 29,68.0407101 C29,64.9250564 30.8632863,62.5 34.0296654,62.5 C36.1212266,62.5 38.0995128,63.8232273 38.3437438,66.203296 L36.1931015,66.203296 C35.9346392,65.0405492 35.0893897,64.439927 34.0296654,64.439927 C32.0089731,64.439927 31.2483922,66.203296 31.2483922,68.0407101 C31.2483922,69.791394 32.0089731,71.5550579 34.0296654,71.5550579 C35.4917457,71.5550579 36.3354139,70.7469025 36.4650763,69.2903347 L34.2020216,69.2903347 L34.2020216,67.5719534 L38.5,67.5719534 L38.5,73.2477741 L37.065951,73.2477741 L36.8378198,72.0561172" id="Path"></path>
            <polyline id="Path" points="40.0882353 62.8139535 47.6500299 62.8139535 47.6500299 64.7235623 42.3119832 64.7235623 42.3119832 66.9350471 47.2122149 66.9350471 47.2122149 68.7008985 42.3119832 68.7008985 42.3119832 71.2299261 47.7647059 71.2299261 47.7647059 73.1395349 40.0882353 73.1395349 40.0882353 62.8139535"></polyline>
            <polyline id="Path" points="52.5903271 64.7235623 49.4705882 64.7235623 49.4705882 62.8139535 58 62.8139535 58 64.7235623 54.8786524 64.7235623 54.8786524 73.1395349 52.5903271 73.1395349 52.5903271 64.7235623"></polyline>
        </g>
    </g>
</svg>