<?xml version="1.0" encoding="UTF-8"?>
<svg width="58px" height="74px" viewBox="0 0 58 74" version="1.1" xmlns="http://www.w3.org/2000/svg" xmlns:xlink="http://www.w3.org/1999/xlink">
    <!-- Generator: Sketch 58 (84663) - https://sketch.com -->
    <title>Target</title>
    <desc>Created with Sketch.</desc>
    <g id="Page-1" stroke="none" stroke-width="1" fill="none" fill-rule="evenodd">
        <g id="Desktop" transform="translate(-540.000000, -2210.000000)" fill="#CC0000">
            <g id="Brands" transform="translate(500.000000, 1828.000000)">
                <g id="Group-8" transform="translate(0.000000, 199.000000)">
                    <g id="Target" transform="translate(40.000000, 183.000000)">
                        <g id="Target_logo">
                            <path d="M29.4130322,48.0520979 C18.892852,48.0520979 10.355349,39.4509675 10.355349,28.8337026 C10.355349,18.1972151 18.892852,9.60234313 29.4130322,9.60234313 C39.9423682,9.60234313 48.4692386,18.1972151 48.4692386,28.8337026 C48.4692386,39.4509675 39.9423682,48.0520979 29.4130322,48.0520979 L29.4130322,48.0520979 Z M29.4130322,0 C13.6419916,0 0.852941176,12.9081777 0.852941176,28.8337026 C0.852941176,44.7470084 13.6419916,57.6511628 29.4130322,57.6511628 C45.1908658,57.6511628 58,44.7470084 58,28.8337026 C58,12.9081777 45.1908658,0 29.4130322,0 Z" id="Shape" fill-rule="nonzero"></path>
                            <path d="M29.4191492,18.9302326 C24.0047171,18.9302326 19.6176471,23.3470566 19.6176471,28.8280444 C19.6176471,34.2909702 24.0045692,38.7209302 29.4191492,38.7209302 C34.8387581,38.7209302 39.2352941,34.2908209 39.2352941,28.8280444 C39.2352941,23.3472059 34.8387581,18.9302326 29.4191492,18.9302326" id="Path" fill-rule="nonzero"></path>
                            <polyline id="Path" fill-rule="nonzero" points="3.12002062 64.7235623 0 64.7235623 0 62.8139535 8.52941176 62.8139535 8.52941176 64.7235623 5.40939115 64.7235623 5.40939115 73.1395349 3.12002062 73.1395349 3.12002062 64.7235623"></polyline>
                            <path d="M7.67647059,73.1395349 L10.0037154,73.1395349 L10.8244133,70.8395617 L14.7342963,70.8395617 L15.5253215,73.1395349 L17.9117647,73.1395349 L14.0018818,62.8139535 L11.6448174,62.8139535 L7.67647059,73.1395349 L7.67647059,73.1395349 Z M12.7867729,65.3582127 L12.8155642,65.3582127 L14.1329114,69.1476924 L11.4257982,69.1476924 L12.7867729,65.3582127 Z" id="Shape" fill-rule="nonzero"></path>
                            <path d="M19.6176471,73.1393898 L21.7963313,73.1393898 L21.7963313,69.1047288 L23.9725111,69.1047288 C25.0692969,69.1047288 25.4706957,69.5815708 25.6229072,70.665672 C25.7351876,71.4902446 25.7069436,72.4883198 25.9707398,73.1395349 L28.1470588,73.1395349 C27.7591559,72.5612896 27.7734866,71.3448854 27.7313293,70.6943957 C27.6616237,69.6516392 27.3577571,68.5682633 26.2889371,68.2792857 L26.2889371,68.2507071 C27.3860011,67.7882269 27.8571056,66.8782086 27.8571056,65.6618045 C27.8571056,64.1011514 26.7327715,62.8139535 24.9579905,62.8139535 L19.6177862,62.8139535 L19.6176471,73.1393898 L19.6176471,73.1393898 Z M21.7963313,64.5777033 L24.1823238,64.5777033 C25.1516636,64.5777033 25.679117,65.0117499 25.679117,66.0085195 C25.679117,67.0492451 25.1516636,67.483872 24.1823238,67.483872 L21.7963313,67.483872 L21.7963313,64.5777033 Z" id="Shape" fill-rule="nonzero"></path>
                            <path d="M37.4444622,72.5316964 C36.5945024,73.5948628 35.4848155,74 34.4189584,74 C31.0076584,74 29,71.5288281 29,68.4483754 C29,65.2800256 31.0075035,62.8139535 34.4189584,62.8139535 C36.6724051,62.8139535 38.8038094,64.159561 39.0669438,66.5798845 L36.7498431,66.5798845 C36.471376,65.3974718 35.5607047,64.7866911 34.4189584,64.7866911 C32.2418657,64.7866911 31.4224164,66.5798845 31.4224164,68.4483754 C31.4224164,70.2286692 32.2418657,72.0221625 34.4189584,72.0221625 C35.9942028,72.0221625 36.9031704,71.2003385 37.0428686,69.7191353 L34.6046548,69.7191353 L34.6046548,67.9716905 L39.2352941,67.9716905 L39.2352941,73.7435081 L37.6902506,73.7435081 L37.4444622,72.5316964" id="Path" fill-rule="nonzero"></path>
                            <polyline id="Path" fill-rule="nonzero" points="40.0882353 62.8139535 47.6500299 62.8139535 47.6500299 64.7235623 42.3119832 64.7235623 42.3119832 66.9350471 47.2122149 66.9350471 47.2122149 68.7008985 42.3119832 68.7008985 42.3119832 71.2299261 47.7647059 71.2299261 47.7647059 73.1395349 40.0882353 73.1395349 40.0882353 62.8139535"></polyline>
                            <polyline id="Path" fill-rule="nonzero" points="52.5903271 64.7235623 49.4705882 64.7235623 49.4705882 62.8139535 58 62.8139535 58 64.7235623 54.8786524 64.7235623 54.8786524 73.1395349 52.5903271 73.1395349 52.5903271 64.7235623"></polyline>
                        </g>
                    </g>
                </g>
            </g>
        </g>
    </g>
</svg>