<?xml version="1.0" encoding="UTF-8"?>
<svg width="119px" height="20px" viewBox="0 0 119 20" version="1.1" xmlns="http://www.w3.org/2000/svg" xmlns:xlink="http://www.w3.org/1999/xlink">
    <!-- Generator: Sketch 58 (84663) - https://sketch.com -->
    <title>Toyota</title>
    <desc>Created with Sketch.</desc>
    <g id="Page-1" stroke="none" stroke-width="1" fill="none" fill-rule="evenodd">
        <g id="Desktop" transform="translate(-509.000000, -2389.000000)" fill="#FF0000">
            <g id="Brands" transform="translate(500.000000, 1828.000000)">
                <g id="Group-8" transform="translate(0.000000, 199.000000)">
                    <g id="Toyota" transform="translate(9.000000, 362.000000)">
                        <g id="Toyota_carlogo">
                            <path d="M14.0777,18.53375 C12.5025158,17.549375 11.3425789,14.151875 11.3425789,10.115625 C11.3425789,9.9675 11.3432053,9.82125 11.3469632,9.675625 L11.3488421,9.6775 C6.96838947,8.990625 3.80298947,7.108125 3.72219474,4.8825 L3.70904211,4.908125 C2.63678947,6.2375 2.02487895,7.774375 2.02487895,9.411875 C2.02487895,14.230625 7.32538947,18.17875 14.0488895,18.528125 L14.0777,18.53375 Z M0,9.76375 C0,4.371875 6.72412632,0 15.0190526,0 C23.3139789,0 30.0381053,4.371875 30.0381053,9.76375 C30.0381053,15.155625 23.3139789,19.5275 15.0190526,19.5275 C6.72412632,19.5275 0,15.155625 0,9.76375 Z M15.0190526,1.40875 C16.6205421,1.40875 17.9821526,3.8325 18.4869632,7.215 L18.4888421,7.21 C21.6041368,6.72625 23.7855947,5.609375 23.7855947,4.310625 C23.7855947,2.566875 19.8604737,1.155625 15.0190526,1.155625 C10.1776316,1.155625 6.25251053,2.5675 6.25251053,4.310625 C6.25251053,5.609375 8.43334211,6.725625 11.5492632,7.21 L11.5511421,7.215 C12.0559526,3.833125 13.4181895,1.40875 15.0190526,1.40875 Z M15.9885895,18.528125 C22.7120895,18.17875 28.0132263,14.230625 28.0132263,9.411875 C28.0132263,7.774375 27.4006895,6.2375 26.3290632,4.908125 L26.3159105,4.8825 C26.2351158,7.108125 23.0703421,8.990625 18.6892632,9.6775 L18.6911421,9.675625 C18.6942737,9.82125 18.6955263,9.9675 18.6955263,10.115625 C18.6955263,14.151875 17.5343368,17.549375 15.9604053,18.53375 L15.9885895,18.528125 Z M15.0190526,7.46625 C15.7368105,7.46625 16.4339,7.435625 17.1009263,7.376875 L17.1003,7.3775 C16.7683526,5.209375 15.9616579,3.679375 15.0190526,3.679375 C14.0764474,3.679375 13.2703789,5.209375 12.9378053,7.3775 L12.9371789,7.376875 C13.6042053,7.435625 14.3012947,7.46625 15.0190526,7.46625 Z M15.0190526,15.495 C16.2247105,15.495 17.2080263,12.99125 17.2606368,9.85125 L17.2669,9.853125 C16.5403737,9.92 15.7887947,9.955625 15.0190526,9.955625 C14.2493105,9.955625 13.4977316,9.920625 12.7712053,9.853125 L12.7780947,9.85125 C12.8300789,12.991875 13.8133947,15.495 15.0190526,15.495 Z" id="Shape" fill-rule="nonzero"></path>
                            <path d="M76.6372526,9.76375 C76.6372526,5.6425 79.9855368,2.301875 84.1148368,2.301875 C88.2460158,2.301875 91.5936737,5.643125 91.5936737,9.76375 C91.5936737,13.885625 88.2453895,17.225625 84.1148368,17.225625 C79.9855368,17.225625 76.6372526,13.885 76.6372526,9.76375 Z M84.1148368,14.489375 C86.4215579,14.489375 88.2911105,12.373125 88.2911105,9.763125 C88.2911105,7.15375 86.4215579,5.036875 84.1148368,5.036875 C81.8093684,5.036875 79.9404421,7.153125 79.9404421,9.763125 C79.9404421,12.373125 81.8099947,14.489375 84.1148368,14.489375 Z" id="Shape" fill-rule="nonzero"></path>
                            <polygon id="Path" fill-rule="nonzero" points="100.079 5.410625 100.079 16.886875 96.9286316 16.886875 96.9286316 5.410625 96.9392789 5.410625 92.5331474 5.410625 92.5331474 2.815625 104.474484 2.815625 104.474484 5.41 100.090274 5.41 100.079 5.41"></polygon>
                            <path d="M108.285616,13.72125 L108.282484,13.724375 L107.073695,16.8875 L103.394089,16.8875 L109.211311,2.81625 L111.172932,2.81625 L113.132674,2.81625 L118.950521,16.8875 L115.270289,16.8875 L114.0615,13.724375 L114.058368,13.72125 L111.172932,13.72125 L108.285616,13.72125 Z M111.172932,11.34625 L113.155221,11.34625 L113.153968,11.346875 L111.186084,6.196875 L111.158526,6.196875 L109.189389,11.346875 L109.188763,11.34625 L111.172932,11.34625 Z" id="Shape" fill-rule="nonzero"></path>
                            <polygon id="Path" fill-rule="nonzero" points="41.9988579 5.410625 41.9988579 16.886875 38.8478632 16.886875 38.8478632 5.410625 38.8585105 5.410625 34.4517526 5.410625 34.4517526 2.815625 46.3937158 2.815625 46.3937158 5.41 42.0095053 5.41 41.9988579 5.41"></polygon>
                            <path d="M47.2004105,9.76375 C47.2004105,5.6425 50.5486947,2.301875 54.6792474,2.301875 C58.8091737,2.301875 62.1574579,5.643125 62.1574579,9.76375 C62.1574579,13.885625 58.8091737,17.225625 54.6792474,17.225625 C50.5486947,17.225625 47.2004105,13.885 47.2004105,9.76375 Z M54.6792474,14.489375 C56.9847158,14.489375 58.8548947,12.373125 58.8548947,9.763125 C58.8548947,7.15375 56.9853421,5.036875 54.6792474,5.036875 C52.3731526,5.036875 50.5036,7.153125 50.5036,9.763125 C50.5036,12.373125 52.3731526,14.489375 54.6792474,14.489375 Z" id="Shape" fill-rule="nonzero"></path>
                            <polygon id="Path" fill-rule="nonzero" points="69.3970421 16.886875 70.9947737 16.886875 70.9947737 11.61 70.9947737 11.54375 76.4913211 2.815625 72.8123421 2.815625 69.3970421 8.73 65.9823684 2.815625 62.3021368 2.815625 67.7993105 11.54375 67.7993105 11.609375 67.7993105 16.88625 69.3970421 16.88625"></polygon>
                        </g>
                    </g>
                </g>
            </g>
        </g>
    </g>
</svg>